<?xml version="1.0" encoding="UTF-8" standalone="no"?>
<!-- Created with Inkscape (http://www.inkscape.org/) -->

<svg
   width="210mm"
   height="297mm"
   viewBox="0 0 210 297"
   version="1.1"
   id="svg1"
   xml:space="preserve"
   xmlns="http://www.w3.org/2000/svg"
   xmlns:svg="http://www.w3.org/2000/svg"><defs
     id="defs1" /><g
     id="layer1"><path
       style="fill:#2e5dd7;stroke:none;stroke-width:0.51376"
       d="m 26.693174,114.61793 c -3.224001,0.0968 -6.352568,0.7685 -9.243399,2.23612 -2.197547,1.11565 -4.276626,2.61021 -5.960826,4.41442 -1.9100504,2.04615 -3.4623454,4.45479 -4.4727304,7.06828 -2.796941,7.23466 -1.413267,15.71696 3.5885144,21.65855 1.863867,2.21409 4.179426,4.04023 6.75442,5.36295 3.605075,1.85186 7.514803,2.2849 11.508938,2.15199 2.575704,-0.0857 5.106194,-0.82991 7.430968,-1.90504 2.233973,-1.03313 4.243967,-2.5157 5.980935,-4.25077 1.624116,-1.62234 3.020401,-3.46959 4.050157,-5.52772 4.112351,-8.21918 2.497267,-18.51558 -4.0543,-25.00487 -1.948948,-1.93042 -4.270992,-3.46764 -6.792386,-4.53716 -2.743874,-1.1639 -5.807545,-1.75634 -8.790291,-1.66675 m -0.453108,1.60907 c 2.320792,-0.18793 4.766385,0.24308 6.97786,0.92416 2.269104,0.69884 4.385566,1.84298 6.252888,3.30551 1.768772,1.38534 3.313967,3.08499 4.520599,4.98019 4.192544,6.58503 4.110529,15.35794 -0.246922,21.8398 -1.749811,2.6029 -4.098844,4.74991 -6.81108,6.31595 -2.411882,1.39262 -5.199595,2.23121 -7.974698,2.44772 -2.824446,0.22035 -5.75138,-0.0831 -8.427805,-1.03893 -2.161315,-0.77189 -4.211636,-1.9104 -5.981023,-3.37233 -2.119356,-1.7511 -3.900276,-3.89769 -5.1638634,-6.34608 -3.463861,-6.71176 -2.699441,-14.973 1.7641054,-21.02421 1.593635,-2.16048 3.626615,-3.96955 5.937162,-5.33337 2.835433,-1.67364 5.900541,-2.43505 9.152777,-2.69841 m 85.546854,8.29667 c -1.80888,0.43351 -1.95155,3.08677 -0.0905,3.55859 0.34735,0.0881 0.74068,0.0817 1.08712,-0.008 2.33894,-0.60336 1.2488,-4.08903 -0.99662,-3.55088 m -57.454171,0.27884 1.259432,7.43097 2.637295,15.5869 h 3.806106 l 1.771512,-9.6965 c 0.334847,-1.84348 0.502899,-3.87729 1.218999,-5.61854 0.812502,3.74887 1.410846,7.55454 2.100923,11.32769 0.171398,0.93716 0.347325,1.87392 0.529028,2.80912 0.06683,0.34399 0.104294,0.85877 0.440264,1.05799 0.237887,0.14106 0.561225,0.11714 0.82685,0.11949 0.631159,0.006 1.269172,0.0233 1.899789,-0.005 0.332403,-0.0149 0.644025,-0.0665 0.795798,-0.39766 0.33076,-0.7217 0.338371,-1.71719 0.46828,-2.49667 l 0.875795,-5.16543 c 0.544741,-3.23302 1.094776,-6.46484 1.647178,-9.6965 0.295538,-1.72896 0.758099,-3.50198 0.837574,-5.25605 h -3.715483 l -1.541247,10.14961 -0.543049,3.8061 H 69.46655 l -0.683655,-3.62486 -1.170082,-6.61537 -0.483468,-2.53726 -0.389783,-1.01667 -1.169756,-0.1615 -2.628008,-5e-5 -1.8207,10.14961 -0.716704,3.8061 h -0.09062 l -1.219282,-7.61238 -0.955636,-6.34352 H 54.33275 m 88.80913,23.01788 h 3.53424 l -9e-5,-8.4278 c -0.002,-1.21119 -0.15485,-2.41211 -0.057,-3.62486 0.10947,-1.3572 0.20655,-2.74401 1.77893,-3.14026 0.26674,-0.0672 0.54252,-0.0925 0.81549,-0.0506 1.79577,0.27527 1.63128,2.28324 1.63128,3.64398 v 11.59956 h 3.353 v -9.96837 c 0,-1.75929 0.23804,-3.72222 -0.2188,-5.43729 -0.58738,-2.20516 -3.07744,-3.42082 -5.2185,-2.7267 -0.85935,0.2786 -1.52385,0.95197 -2.17491,1.54862 l 0.0906,-6.43414 -2.44644,5.2e-4 -0.92625,0.21012 -0.16155,1.60156 v 4.25922 l 0.0906,5.52791 -0.0906,11.41832 M 21.980853,141.74874 h 0.09062 l 4.984185,-9.87775 h 0.09062 l 2.197573,4.34984 2.786612,5.52791 c 1.444873,-2.13907 2.449255,-4.67195 3.602208,-6.97786 0.384002,-0.768 0.713786,-1.62743 1.202649,-2.33481 0.442198,-0.63986 1.238087,-0.69289 1.900929,-0.9861 0.859735,-0.38032 1.491262,-1.11949 1.744672,-2.02577 0.915746,-3.27498 -3.494859,-5.49666 -5.631454,-2.88244 -0.746074,0.91285 -0.904601,2.16369 -0.456794,3.24494 0.212665,0.51349 0.721172,1.05325 0.700422,1.63119 -0.02307,0.64249 -0.543497,1.3372 -0.815718,1.90305 -0.45128,0.93805 -0.903605,1.87439 -1.361744,2.80927 -0.274856,0.56087 -0.499265,1.13509 -0.88517,1.63118 -0.422512,-1.50196 -1.320079,-2.95733 -2.016329,-4.34983 -0.280317,-0.56063 -0.720694,-1.1899 -0.832657,-1.81243 -0.115202,-0.64053 0.496377,-1.19048 0.761192,-1.72181 0.442281,-0.88739 0.454405,-1.92333 -0.0056,-2.80884 -1.13728,-2.18941 -4.423379,-2.30615 -5.685915,-0.18083 -0.550596,0.92686 -0.563515,2.0252 -0.108742,2.98967 0.23694,0.5025 0.792595,1.04326 0.738421,1.63119 -0.0605,0.65663 -0.572913,1.40348 -0.853693,1.99367 -0.676898,1.42283 -1.408127,2.82274 -2.055694,4.25921 -0.729616,-1.32851 -1.338676,-2.72241 -2.016326,-4.07797 -0.341986,-0.68409 -0.896268,-1.49693 -0.996548,-2.26553 -0.07751,-0.59409 0.426121,-1.12308 0.660079,-1.63119 0.385997,-0.83831 0.398166,-1.79345 -0.01304,-2.62793 -1.311534,-2.66156 -5.673035,-2.25652 -6.112746,0.8155 -0.06349,0.44354 -0.0541,0.92324 0.05202,1.35932 0.188392,0.77422 0.666782,1.48708 1.359787,1.89165 0.819437,0.47838 1.742328,0.57479 2.352971,1.37707 0.781973,1.02738 1.227743,2.37465 1.79287,3.5279 0.921866,1.88125 1.941984,3.72257 2.830314,5.61853 m 80.743803,-15.04317 v 3.17175 h -5.981019 c -1.39295,0 -2.82922,-0.0846 -4.168591,0.37131 -2.612062,0.88905 -4.004257,3.61021 -3.09631,6.24406 0.977932,2.83688 4.145321,3.55875 6.264851,5.26909 0.97396,0.78592 1.45551,2.04939 0.32882,2.96902 -1.20113,0.98039 -2.920467,0.0575 -3.488804,-1.17007 -0.217256,-0.46925 -0.246975,-1.31877 -0.66881,-1.65043 -0.25781,-0.2027 -0.664296,-0.15978 -0.971184,-0.16121 -0.759857,-0.004 -1.507546,0.0575 -2.26529,0.0903 0.37387,1.86946 0.629589,3.61105 2.179348,4.92261 2.5817,2.18489 8.00318,2.00503 9.224079,-1.66023 0.19428,-0.58325 0.29311,-1.19767 0.2784,-1.81243 -0.0125,-0.52272 -0.10555,-1.04207 -0.26218,-1.54057 -0.978479,-3.11417 -4.665369,-3.23692 -6.677219,-5.36401 -0.922566,-0.97543 -1.062752,-2.54469 0.33415,-3.19115 0.68855,-0.31865 1.52602,-0.23511 2.26377,-0.23513 h 2.5374 4.077969 v 6.97786 l 0.0417,3.98735 0.61457,2.7185 0.61417,1.01667 1.17636,0.1615 2.44674,6e-5 c -0.47913,-0.92006 -1.03897,-1.79399 -1.30307,-2.80927 -0.37923,-1.45793 -0.2375,-3.03942 -0.2375,-4.53108 v -7.52159 h 2.62803 v -3.08113 h -2.71865 v -3.17175 h -3.17175 m 35.88614,4.53107 c -0.61206,-0.4333 -1.19849,-0.87571 -1.90306,-1.15068 -1.97215,-0.76964 -4.85954,-0.59923 -6.40072,0.99542 -0.60903,0.63015 -0.91901,1.48176 -1.07321,2.33018 -0.16898,0.92982 -0.13828,1.86853 -0.13828,2.80927 0,1.55265 -0.0106,3.22441 0.77602,4.62166 1.6314,2.89773 6.80176,3.07893 8.67365,0.36163 1.66259,-2.41348 1.23434,-5.91465 0.69995,-8.60816 0.41404,0.13264 0.83068,0.24685 1.26872,0.25477 0.27313,0.005 0.55285,-0.0254 0.80359,-0.14053 2.0078,-0.92164 0.38598,-3.95709 -1.51997,-3.08822 -0.2384,0.10867 -0.44178,0.27347 -0.60677,0.47614 -0.27189,0.33398 -0.43405,0.73834 -0.57992,1.13852 m -51.382417,10.24024 h -3.534241 c -0.03594,0.83017 -0.0094,1.8993 -0.502855,2.60686 -0.792656,1.13656 -2.538377,0.89128 -3.269301,-0.16885 -0.834969,-1.21102 -0.577679,-3.12937 -0.577679,-4.52231 h 7.793454 c 0,-2.73879 0.543945,-6.34037 -1.58268,-8.48358 -2.076016,-2.09221 -6.591889,-1.90718 -8.476462,0.34289 -1.1233,1.34115 -1.339047,3.18761 -1.357708,4.87832 -0.02521,2.28439 -0.105561,4.62385 0.251338,6.88724 0.203357,1.28963 0.56732,2.60728 1.458474,3.60162 2.052266,2.28991 6.638737,2.11471 8.548195,-0.25142 1.100296,-1.36344 1.217257,-3.20783 1.249465,-4.89077 m 32.170647,-10.24024 0.0906,-1.35932 h -3.26237 v 17.94307 h 3.353 c 0,-3.98731 -0.009,-7.97475 1.9e-4,-11.96205 0.003,-1.29298 0.48024,-3.26123 2.17469,-3.16421 1.71248,0.0981 1.9837,2.11057 1.99292,3.43608 0.0271,3.89863 -0.0898,7.7957 -0.0898,11.69018 h 3.44362 v -9.87775 c 0,-1.76571 0.23008,-3.72397 -0.27523,-5.43729 -0.6556,-2.22289 -3.03466,-3.5139 -5.25269,-2.78811 -0.85459,0.27964 -1.53658,0.91149 -2.17492,1.5194 m 41.32344,-1.66752 c -0.53154,0.0791 -1.05659,0.2517 -1.54058,0.48363 -3.06295,1.46777 -2.71864,4.94362 -2.71864,7.79926 v 3.89673 c 0,1.93059 -0.0473,3.83246 1.54402,5.21432 0.30007,0.26059 0.63478,0.47783 0.99339,0.6489 0.51294,0.24469 1.07229,0.38876 1.63119,0.48207 0.70912,0.11838 1.46275,0.1282 2.17491,0.0279 0.56094,-0.079 1.11027,-0.2341 1.63119,-0.45653 3.41858,-1.45974 2.78533,-5.97478 2.64317,-8.99776 -0.11918,-2.53418 0.61383,-5.64292 -1.40931,-7.66805 -0.33279,-0.33311 -0.72926,-0.60759 -1.14325,-0.83002 -0.5067,-0.27225 -1.06775,-0.44654 -1.63118,-0.55577 -0.69787,-0.1353 -1.47144,-0.1493 -2.17491,-0.0447 m 24.28657,11.99838 h -3.26237 c 0.40926,2.31686 0.76201,4.56312 2.9905,5.86789 2.31268,1.35405 6.07068,0.96325 7.65769,-1.33765 0.70076,-1.01601 0.83384,-2.33257 0.75422,-3.5334 -0.21731,-3.27726 -3.29108,-4.54215 -5.69326,-6.09205 -0.86195,-0.55614 -2.32839,-1.59495 -1.64598,-2.78359 0.69032,-1.20247 2.33914,-1.33983 3.12685,-0.17727 0.3213,0.47418 0.42821,1.39129 0.94986,1.68294 0.29199,0.16325 0.69132,0.11934 1.01298,0.1201 l 2.08421,1.4e-4 c -0.27472,-1.85309 -0.7397,-3.82986 -2.35882,-4.97782 -2.87829,-2.04073 -7.46445,-0.38956 -8.18897,3.07477 -0.32852,1.57086 -0.0232,3.29906 1.08127,4.50974 0.74522,0.81689 1.72573,1.37611 2.66991,1.92773 1.16722,0.68194 3.01977,1.56089 3.39788,2.98718 0.38616,1.45664 -1.25279,2.46125 -2.49164,1.93147 -1.32735,-0.56763 -1.79081,-1.90153 -2.08433,-3.20018 m 21.38669,-0.0906 h -3.53424 c -0.0244,0.82768 -0.0307,1.89291 -0.51304,2.60142 -0.78743,1.15671 -2.54079,0.89464 -3.2797,-0.16098 -0.36669,-0.52386 -0.42096,-1.18764 -0.46961,-1.80609 -0.0715,-0.90897 -0.0875,-1.80702 -0.0875,-2.71865 h 7.79346 c 0,-2.73953 0.52594,-6.38948 -1.64422,-8.49816 -2.03326,-1.97563 -6.3409,-1.91736 -8.28437,0.17839 -1.11003,1.197 -1.44723,2.93178 -1.4855,4.51367 -0.0579,2.39407 -0.13554,4.87485 0.2033,7.24973 0.19149,1.34204 0.56267,2.75076 1.48552,3.78869 2.06907,2.32706 6.75741,2.08343 8.62876,-0.34665 1.04268,-1.35398 1.11611,-3.16024 1.18713,-4.80137 m -95.78697,-11.59959 c -0.30842,1.65372 -0.0821,3.49498 -0.01,5.16543 0.11038,2.55612 0.15471,5.24037 -0.01,7.79345 -0.074,1.1489 -0.0711,2.2922 -0.0708,3.44362 7e-5,0.38008 -0.10678,1.0163 0.16155,1.3297 0.21154,0.24708 0.63514,0.20754 0.92625,0.21011 0.78515,0.007 1.57063,5.2e-4 2.35582,5.2e-4 V 129.9677 l -3.353,-0.0906 m 66.33498,16.58374 -0.0906,1.35933 h 3.17175 V 129.8771 h -3.26237 c 0,4.01721 0.0283,8.03557 -0.001,12.05267 -0.01,1.34433 -0.54827,3.26883 -2.26472,3.13256 -1.74635,-0.13863 -1.81205,-2.17625 -1.81243,-3.49505 l -1e-5,-11.69018 c -0.72479,0 -1.44983,-0.006 -2.17458,5.1e-4 -0.29114,0.003 -0.71471,-0.0369 -0.92625,0.21012 -0.29476,0.34427 -0.16154,1.09242 -0.16155,1.51095 v 3.98734 5.8904 c 0,1.398 -0.0732,2.82344 0.38203,4.16859 0.74316,2.19608 3.14328,3.13917 5.2365,2.16237 0.70628,-0.32959 1.31989,-0.8382 1.90306,-1.34678 M 83.784756,136.31145 h -4.712321 c 0.189153,-1.00167 0.163704,-2.19738 0.772562,-3.06211 0.744614,-1.05753 2.524035,-1.12655 3.24658,-0.008 0.566157,0.87607 0.561052,2.06892 0.693179,3.07059 m 50.566834,-3.8252 c 1.00173,-0.0109 1.69227,0.72644 1.92048,1.65029 0.35965,1.4559 0.32066,3.08916 -0.0814,4.53106 -0.24218,0.86837 -0.86026,1.6649 -1.83903,1.66401 -0.97926,-0.001 -1.60059,-0.68907 -1.86712,-1.5734 -0.42676,-1.41593 -0.4586,-3.19762 -0.0443,-4.62166 0.26526,-0.91152 0.9068,-1.63935 1.91134,-1.6503 m 68.50989,3.91582 -4.53107,-0.0906 c 0.0418,-0.96345 0.0708,-2.14608 0.60324,-2.98417 0.69473,-1.09343 2.47127,-1.24709 3.26258,-0.17058 0.64432,0.87657 0.65797,2.20134 0.66525,3.24537 m -41.41402,-3.74917 c 1.00357,-0.16223 1.98566,0.40878 2.27391,1.39273 0.36275,1.23828 0.17843,2.54342 0.17323,3.80589 -0.007,1.6819 0.17643,3.40455 -0.0503,5.07481 -0.13427,0.98922 -0.72479,1.80265 -1.76255,1.95169 -1.07428,0.15428 -1.9841,-0.46459 -2.27983,-1.49868 -0.3109,-1.08711 -0.16695,-2.3247 -0.16695,-3.44352 0,-1.73808 -0.12348,-3.52894 0.0926,-5.25605 0.12725,-1.01697 0.63747,-1.85189 1.71984,-2.02687 m -30.5395,15.16699 v 0.18124 c -0.5664,0.17424 -1.15094,0.41434 -1.49449,0.92679 -0.7853,1.17137 -0.30565,3.27152 0.9518,3.88968 0.9502,0.46711 2.22492,0.43821 3.26134,0.4395 1.69293,0.002 3.49771,0.14616 5.16543,-0.20117 3.14601,-0.6552 4.14258,-5.29441 1.53756,-7.20405 -1.13699,-0.83348 -2.54578,-0.84122 -3.89372,-0.84125 h -4.6217 c -0.0193,-0.65534 0.0771,-2.05306 -0.73884,-2.28065 -0.89915,-0.25079 -1.76715,1.10787 -1.91341,1.82754 -0.30587,1.50493 0.35235,2.67398 1.74603,3.26237 M 20.530908,143.42295 c -0.790715,0.0776 -1.53424,0.26702 -2.070183,0.89972 -1.024067,1.20894 -0.486115,3.19046 0.983564,3.75764 0.577396,0.22283 1.203815,0.19299 1.811592,0.19317 l 2.537403,2e-5 h 6.97786 c 1.115413,0 2.453627,0.19748 3.534227,-0.10991 2.296018,-0.65311 2.317357,-3.98708 0,-4.61787 -1.597603,-0.43487 -3.52257,-0.16579 -5.165415,-0.16579 h -5.437293 c -1.051574,0 -2.124205,-0.0598 -3.171755,0.043 m 111.192652,7.1161 v -2.71865 c 1.91206,0 3.90041,-0.15485 5.79978,0.0828 0.78533,0.0983 1.73493,0.49155 1.61471,1.45689 -0.11855,0.95181 -1.09883,1.13393 -1.88657,1.1747 -1.84914,0.0957 -3.67644,0.004 -5.52792,0.004 z"
       id="path7794" /></g></svg>
