<?xml version="1.0" encoding="utf-8"?>
<!-- Generator: Adobe Illustrator 12.0.0, SVG Export Plug-In . SVG Version: 6.00 Build 51448)  -->
<!DOCTYPE svg PUBLIC "-//W3C//DTD SVG 1.1//EN" "http://www.w3.org/Graphics/SVG/1.1/DTD/svg11.dtd" >
<svg  version="1.1" id="Layer_1" xmlns="http://www.w3.org/2000/svg" xmlns:xlink="http://www.w3.org/1999/xlink" width="542.973" height="335.983"
	 viewBox="0 0 542.973 335.983" overflow="visible" enable-background="new 0 0 542.973 335.983" xml:space="preserve">
<g>
	<path fill-rule="evenodd" clip-rule="evenodd" d="M527.904,197.108c-0.206-1.734-0.773-3.443-1.923-4.782
		c-1.191-1.39-2.825-1.94-4.213-3.058c-1.57-1.266-0.994-1.863-0.825-3.759c0.161-1.841,0.143-3.645,0.034-5.494
		c3.269,0.751,1.106-9.927,0.703-11.167c-0.878-2.709-1.841-5.636-1.99-8.498c-0.154-2.92,0.583-5.902-0.721-8.679
		c-1.063-2.264-0.71-6.049-1.106-8.552c-0.44-2.792-0.808-5.584-0.9-8.414c-0.201-6.155,0.49-12.453,0.668-18.618
		c0.168-5.922,0.489-11.836,1.295-17.709c0.777-5.667,0.882-11.24,1.067-16.843c0.188-5.58-0.3-11.234-0.462-16.82
		c-0.173-5.945-0.33-11.927-0.868-17.853c-0.449-4.949-1.998-11.262-5.069-15.296c-1.577-2.072-3.465-3.842-4.986-5.974
		c-1.712-2.396-2.904-4.49-5.641-5.814c-2.466-1.194-4.817-2.337-7.007-4.018c-2.404-1.844-4.106-3-7.202-3
		c-2.756,0-5.827,0.599-8.525,0c-2.692-0.599-4.747-0.76-7.445-0.147c-2.342,0.53-4.955,1.399-7.341,1.421
		c-1.224,0.012-2.355-0.196-3.591,0c-1.113,0.177-2.544,1.16-3.569,1.16c-2.906,0-5.832,0.002-8.73-0.226
		c-2.936-0.232-5.656-1.073-8.538-1.528c-5.323-0.842-11.074,1.164-16.301,2.012c-5.334,0.866-10.696,1.365-16.099,1.52
		c-5.92,0.17-11.853,0.509-17.775,0.283c-5.933-0.226-11.867-0.821-17.797-1.155c-11.732-0.658-23.313-1.939-35.063-1.852
		c-5.517,0.041-10.97,0.35-16.481-0.13c-3.134-0.273-6.254-0.565-9.357-1.072c-2.289-0.374-4.256-1.235-6.504-1.614
		c-11.792-1.988-23.818-4.472-35.81-4.472c-6.41,0-12.855,1.554-18.75,4.013c-6.207,2.589-12.141,4.391-18.728,5.779
		c0.352-1.12-0.2-0.196-0.594-0.113c-1.358,0.286-2.702,0.853-4.07,1.174c-2.601,0.612-5.143,1.192-7.815,1.39
		c-5.748,0.425-11.57-0.286-17.296,0.495c-2.943,0.401-5.721,1.285-8.537,2.178c-2.425,0.768-4.967,0.917-7.407,1.642
		c-5.331,1.582-10.596,3.666-15.834,5.532c-2.563,0.912-4.817,2.58-7.275,3.736c-2.963,1.39-5.896,2.888-8.917,4.147
		c-5.531,2.308-10.049,6.75-14.255,10.874c-3.223,3.161-8.125,4.646-11.143,8.042c-1.468,1.651-2.421,4.716-3.454,6.669
		c-1.426,2.691-2.851,5.376-4.182,8.115c-3.88,7.976-6.814,16.394-10.497,24.458c-1.832,4.009-3.349,8.203-5.452,12.075
		c-0.882,1.624-1.964,3.103-3.191,4.487c-0.557,0.625-3.688,3.339-2.094,3.98c-2.698,4.142-6.063,7.778-8.667,12.017
		c-2.935,4.779-5.397,10.478-8.974,14.718c-6.63,7.855-13.394,16.262-18.126,25.337c-1.382,2.652-4.23,2.17-6.672,3.537
		c-1.043,0.585-1.852,1.66-2.885,2.179c-1.097,0.552-2.684,0.391-3.874,0.538c-2.673,0.333-4.783,0.913-7.479,0.784
		c-2.78-0.132-5.077,0.229-7.153,2.211c-3.391,3.235-3.664,9.186-2.954,13.449c0.336,2.017-1.404,2.883-2.148,4.598
		c-0.463,1.066-0.491,2.42-0.933,3.297c-0.476,0.944-1.499,1.854-2.131,2.735c-3.068,4.282-6.804,7.523-8.565,12.661
		c-0.941,2.743-1.702,4.671-1.519,7.669c0.104,1.709,0.674,3.774,1.57,5.207c0.372,0.596,0.736,1.119,0.963,1.805
		c0.322,0.967-0.395,1.949-0.724,2.905c-1.001,2.916-2.008,5.829-2.97,8.759c-1.864,5.677-3.416,11.277-4.542,17.146
		c-0.502,2.616-0.781,5.255-1.086,7.898c-0.347,3.01-1.203,4.618-2.967,7.078c-1.234,1.722-2.416,2.26-2.502,4.5
		c-0.094,2.444-1.345,6.566-0.382,8.887c0.375,0.902,1.725,1.79,2.375,2.583c0.87,1.06,1.624,2.169,2.282,3.375
		c1.256,2.307,2.604,3.576,4.986,4.699c1.781,0.839,3.473,1.701,4.89,0.21c1.196-1.259,1.845-3.141,3.28-4.159
		c1.099,4.109,7.188,3.499,9.925,1.738c1.367-0.877,1.719-2.474,2.403-3.806c0.582-1.132,0.744-1.101,2.172-1.693
		c1.215-0.503,2.433-1.001,3.643-1.52c5.252-2.253,10.557-4.573,15.426-7.582c4.375-2.704,7.584-5.973,11.034-9.722
		c4.084-4.438,7.963-9.059,12.086-13.467c3.638-3.89,7.249-7.378,9.442-12.242c1.119-2.479,1.811-5.247,3.169-7.601
		c1.402-2.426,3.125-4.741,4.75-7.02c1.706-2.39,3.647-4.574,5.429-6.904c1.448-1.893,2.649-3.874,4.469-5.457
		c4.273-3.721,9.175-6.874,13.669-10.334c2.363-1.821,5.097-3.046,8.006-3.665c2.616-0.557,5.188,0.14,7.785-0.07
		c1.778-0.146,3.101-1.67,4.721-1.783c1.19-0.085,1.888,0.829,2.913,1.244c1.105,0.447,2.412,0.388,3.478,0.511
		c1.141,0.13,0.877-0.894,1.328,1.019c0.302,1.274,0.535,1.952,1.3,3.027c1.451,2.036,3.254,4.042,5.527,5.15
		c2.065,1.006,4.059,1.175,6.32,0.934c-0.28,1.837,0.118,2.572,1.811,3.65c0.638,0.407,1.39,0.711,2.119,0.901
		c0.921,0.237,0.489,0.369,0.934,0.995c1.663,2.344,3.374,3.345,6.183,4.227c2.941,0.925,6.167,1.016,9.198,0.557
		c1.563-0.238,3.103-0.641,4.672-0.869c1.883-0.276,3.13,0.921,5.054,1.039c-1.992,5.584-2.311,11.121-1.413,16.952
		c0.799,5.192,2.693,10.104,3.663,15.263c0.931,4.955-1.289,10.502-3.157,15.106c-1.088,2.682-1.942,5.435-2.641,8.232
		c-0.533,2.131-2.245,4.057-3.298,5.962c-1.317,2.38-2.844,4.876-3.537,7.531c-0.478,1.827-0.437,3.805-1.803,5.1
		c-1.992,1.887-4.458,2.902-6.249,5.165c-1.412,1.781-2.666,3.658-4.241,5.307c-1.975,2.067-4.393,4.094-6.12,6.352
		c-0.501,0.655-1.549,2.748-0.679,3.326c1.072,0.714,2.184,1.188,3.407,1.585c5.469,1.778,11.171,1.99,16.853,1.372
		c2.415-0.263,5.659-1.452,6.785-3.834c0.548-1.16,0.149-1.977-0.271-3.112c-0.651-1.758-1.03-3.557-1.284-5.405
		c1.215-0.149,2.806-0.358,3.732-1.19c0.992-0.89,1.517-2.076,2.715-2.857c1.149-0.75,2.314-0.954,3.609-1.32
		c5.09-1.438,6.005-5.83,6.71-10.396c0.303-1.959,1.43-3.661,1.597-5.659c0.16-1.909-0.072-3.939,0.242-5.746
		c0.459-2.645,1.082-5.321,1.754-7.924c0.673-2.602,1.77-5.033,2.479-7.624c1.423-5.192,1.817-10.885,4.156-15.76
		c1.197-2.492,3.737-4.891,4.517-7.491c0.705-2.346,0.782-5.026,1.385-7.442c0.709-2.844,0.819-5.901,1.739-8.66
		c0.879-2.64,0.593-5.521,1.611-8.066c2.001-4.996,3.933-10.069,6.107-14.971c0.74-1.671,1.602-4.975,3.732-2.434
		c1.652,1.975,2.828,4.535,4.355,6.637c3.384,4.657,6.717,9.198,9.402,14.315c0.553,1.057,1.599,2.49,1.737,3.642
		c0.142,1.171-0.481,2.785-0.717,3.952c-0.542,2.68-1.244,5.412-0.986,8.168c0.271,2.887,0.981,3.555,3.116,5.426
		c2.093,1.831,4.281,3.609,6.411,5.44c4.027,3.459,7.854,6.672,12.567,9.188c4.722,2.515,6.631,6.721,7.629,11.72
		c1.042,5.214,0.438,11.318,2.856,16.159c0.601,1.206,1.238,2.388,1.893,3.565c0.459,0.825,1.866,2.534,1.866,3.438
		c0,1.946-1.936,2.538-3.053,3.749c-1.376,1.493-1.577,4.844-0.99,6.736c0.451,1.451,0.614,1.299-0.42,2.591
		c-0.887,1.109-1.631,2.317-2.379,3.522c-0.982,1.58-3.249,4.771-2.856,6.735c0.373,1.861,2.846,1.509,4.185,1.472
		c5.685-0.154,11.464-1.087,16.919-2.688c1.5-0.438,3.674-0.688,4.527-2.15c0.989-1.695,0.724-4.189,0.326-6.027
		c-0.592-2.732-1.866-5.308-3.242-7.718c-0.364-0.638,0.489-1.872,0.611-2.726c0.18-1.245,0.101-2.577-0.028-3.822
		c1.033,1.897,1.905,3.817,4.537,2.731c1.655-0.68,1.995-2.735,1.854-4.429c-0.096-1.149-0.609-1.841-1.017-2.83
		c-0.414-0.998-0.535-2.072-0.934-3.084c-0.803-2.042-2.18-3.674-2.731-5.833c-1.476-5.768-4.522-10.704-7.788-15.618
		c-3.284-4.944-4.68-10.461-7.176-15.77c-2.075-4.414-2.538-9.684-3.396-14.441c-1.021-5.651-1.962-11.127-4.354-16.373
		c-2.238-4.903-4.235-10.102-6.193-15.141c-1.805-4.648-4.534-10.402-3.534-15.479c2.449,1.361,4.55,3.21,7.273,4.074
		c2.951,0.938,5.891,1.877,8.878,2.69c5.77,1.57,11.4,3.006,17.345,3.741c2.916,0.36,5.871,0.591,8.773,1.026
		c2.454,0.368,4.644,1.675,7.021,2.34c2.644,0.737,5.354,0.929,8.09,0.867c2.565-0.06,6.067-0.879,8.549-0.304
		c1.556,0.362,3.1,0.68,4.674,0.963c1.045,0.189,2.099,1.27,3.221,1.555c2.383,0.604,4.708-1.184,6.813-0.482
		c2.217,0.738,5.141,0.71,7.041,1.501c2.219,0.923,4.146,1.714,6.7,1.557c0.986-0.062,4.8-1.765,5.111-1.523
		c1.688,1.298,3.545,1.622,5.486,0.585c1.121-0.6,3.367,0.091,4.848-0.157c2.456-0.412,4.619-1.768,6.779-2.925
		c-0.107,3.885,6.348,8.043,9.165,9.829c4.74,3.001,10.291,4.888,15.775,6.008c5.661,1.157,11.381,1.12,17.075,0.252
		c4.523-0.688,2.175,7.146,5.713,8.915c1.854,0.928,2.669-3.54,2.826-4.626c0.155-1.084-0.317-2.761,0.227-3.707
		c0.746-1.302,3.772-1.889,5.146-2.181c-0.379,0.959,0.767,2.856,0.96,3.842c0.337,1.706,0.964,3.416,1.662,5.006
		c1.202,2.738,3.784,4.022,6.087,1.624c0.036,1.676,0.94,3.498,1.247,5.182c0.57,3.136,1.24,6.277,1.581,9.449
		c0.256,2.387,0.879,5.878,0.402,8.224c-0.604,2.975-1.214,5.947-1.841,8.915c-1.091,5.166-1.525,10.354-3.413,15.32
		c-1.896,4.992-2.229,10.924-4.71,15.589c-1.109,2.084-2.452,4.206-4.068,5.922c-0.763,0.808-1.827,1.509-2.331,2.519
		c-0.378,0.754,0.004,2.228-0.425,2.689c-3.362,3.635-8.889,8.513-9.684,13.668c-0.587,3.79,11.647,2.429,13.651,2.27
		c2.924-0.231,9.482-0.332,10.296-3.998c0.242-1.086-0.028-2.32-0.378-3.365c-0.253-0.765-1.842-2.779-1.798-3.397
		c0.033-0.464,1.223-1.412,1.413-2.065c0.176-0.608,0.188-1.266,0.113-1.896c3.901-0.179,6.331,4.465,9.472,0.368
		c2.908-3.797,3.63-8.982,4.212-13.594c1.421-11.24,7.258-21.702,10.148-32.584c1.523-5.736,3.583-11.293,5.728-16.818
		c1.964-5.058,3.023-10.157,4.002-15.48c1.084,11.074,9.146,20.011,10.758,31.074c0.814,5.592,1.296,11.519,0.733,17.155
		c-0.598,5.979-1.794,11.892-2.434,17.872c-0.262,2.432-0.384,4.782-1.043,7.14c-0.434,1.56-1.441,5.914-0.722,7.174
		c0.383,0.666-2.947,4.207-3.548,4.739c-1.911,1.701-3.845,3.438-5.658,5.254c-1.813,1.814-3.357,3.781-4.335,6.181
		c-0.445,1.092-0.595,2.114-1.312,3.029c-0.479,0.612-1.116,2.119-0.498,2.744c0.468,0.475,2.374,0.222,2.934,0.252
		c1.604,0.088,3.219,0.237,4.826,0.259c2.927,0.04,5.907,0.11,8.812-0.33c2.389-0.362,4.736-0.957,6.925-1.993
		c2.081-0.985,2.38-1.979,2.176-4.216c-0.123-1.348-0.312-2.69-0.564-4.019c-0.379-1.975-0.503-1.722,1.017-2.604
		c2.361-1.371,1.925-3.262,3.113-5.406c0.599-1.077,1.437-1.916,2.45-2.604c0.358-0.242,1.196,0.81,1.731,1.048
		c1.604,0.719,3.96,0.541,5.316-0.395c3.627-2.502,0.242-9.099,0.399-12.625c0.266-5.976,1.142-11.936,1.215-17.915
		c0.077-6.087,0.113-12.147-0.081-18.233c-0.382-11.952,1.656-23.275,3.612-35.025c0.011,1.001-0.152,5.092,1.498,3.029
		c0.825-1.031,0.353-3.588,0.848-4.98c1.191,1.552,3.449,4.191,3.21,0.676c-0.101-1.462-0.784-2.873-0.861-4.298
		c-0.087-1.58,0.877-3.117,1.487-4.543c0.541-1.271,1.055-2.58,1.282-3.947c0.169-1,0.076-2.186,0.425-2.972
		C527.213,202.249,528.083,200.178,527.904,197.108 M213.012,20.741c0.805,0.055,1.622,0.01,2.432,0
		c-1.444,0.347-2.875,0.724-4.326,1.048c-0.127-0.242-0.249-0.777-0.225-1.048C211.598,20.741,212.306,20.741,213.012,20.741
		 M209.619,265.85c-0.17,0.557-0.34,1.112-0.509,1.669C209.21,267.032,209.543,265.925,209.619,265.85 M219.232,237.917
		c-0.083,0.795-0.125,1.591-0.234,2.386c-0.178,1.28-0.55,1.645-1.094,2.665c-0.745,1.399-1.419,2.867-2.262,4.261
		c0.665-2.159,1.33-4.315,1.993-6.473c0.351-1.143,1.404-2.334,1.399-3.519c0.085,0,0.17,0,0.254,0
		C219.27,237.464,219.251,237.691,219.232,237.917 M225.566,212.984c-0.047,0.161-0.094,0.321-0.141,0.481
		c0.075-0.379,0.229-0.739,0.339-0.934C225.698,212.682,225.632,212.833,225.566,212.984 M508.139,177.58
		c0.551-3.459,1.51-6.777,2.688-10.074c-0.809,4.16-1.507,8.315-2.093,12.51C508.539,179.202,508.288,178.404,508.139,177.58
		 M520.977,170.477c0.105,0.937,0.245,1.864,0.34,2.802c-0.342-0.892-0.66-1.783-0.962-2.688
		C520.562,170.552,520.77,170.516,520.977,170.477 M519.223,174.44c0.104-2.042,0.833-1.253,1.33,0.142
		c0.514,1.441,0.509,2.96,0.196,4.442C520.19,177.324,518.927,176.502,519.223,174.44 M519.93,184.375
		c-0.047,0.548-0.123,1.099-0.227,1.641c-0.488-0.47-0.581-1.133-0.875-1.697C519.178,184.334,519.59,184.283,519.93,184.375
		 M505.455,128.254c-0.216-9.596-0.261-18.999,0.57-28.563c0.833-9.588,2.775-18.881,4.405-28.349
		c1.987,11.856,2.705,23.879,1.937,35.884c-0.396,6.174-0.734,12.275-0.694,18.464c0.037,5.843,0.564,11.587,0.377,17.412
		c-0.162,5.008,0.477,10.241-0.206,15.207c-0.717,5.22-3.218,10.026-4.354,15.139C505.511,158.394,505.782,143.192,505.455,128.254
		 M75.005,153.78c1.357-1.722,2.69-3.54,4.326-5.009c-1.808,2.244-3.35,4.781-4.722,7.331
		C73.184,155.551,74.445,154.581,75.005,153.78 M476.078,324.43c-0.17-0.01-0.34-0.018-0.51-0.027
		c0.131-0.295,0.263-0.548,0.51-0.766C476.078,323.9,476.104,324.172,476.078,324.43 M521.938,219.607
		c-0.646-0.862-0.716-2.079-1.979-2.35c0.255-0.822,1.611-2.827,1.611-0.83C521.57,217.227,522.083,219.598,521.938,219.607"/>
	<path fill-rule="evenodd" clip-rule="evenodd" fill="#FFFFFF" d="M513.287,52.891c-0.09-2.034-0.627-3.939-1.062-5.916
		c-0.38-1.732-1.37-4.509-0.682-6.207c0.774-1.91,2.124-7.673,0.229-9.302c-0.987-0.849-2.755-1.493-3.97-2.193
		c-1.188-0.687-2.528-1.703-3.861-2.067c-1.519-0.412-1.487,2.349-1.344,3.298c0.211,1.396-0.015,0.934,1.243,1.528
		c0.987,0.467,1.894,0.91,2.8,1.528c-1.454,0.516-1.422,4.204-2.035,5.546c-0.309,0.673-0.832,1.058-0.623,1.868
		c0.273,1.06,1.572,1.587,1.868,2.774c-1.484,0.008-1.286,3.66-1.324,4.68c-0.072,1.941,1.212,3.278,1.268,5.196
		c-1.445-0.794-0.991,1.538-0.991,2.43c0,1.95,0.343,4.243-0.141,6.117c-1.431-1.443-2.168,4.886-2.456,5.726
		c-0.756,2.202-2.086,3.763-2.931,5.906c-0.483,1.225-0.87,2.306-1.413,3.396c-0.358,0.717-0.473,2.02-0.382,2.801
		c0.151,1.281,1.021,1.566,1.187,2.52c0.282,1.632-0.248,2.728,1.301,4.103c-0.861-0.295-1.231,0.282-0.791,1.019
		c0.563,0.941,1.773,1.421,1.247,2.652c-0.569,1.329-0.928,2.352,0.053,3.573c0.467,0.583,5.504,5.139,5.797,4.796
		c0.926-1.078,0.508-4.634,0.594-6.013c0.35-5.587,0.389-10.954,1.66-16.438c0.28-1.207,0.601-2.408,0.938-3.6
		c0.235-0.836,0.471-1.671,0.707-2.507c0.098-0.343,0.193-0.686,0.291-1.028c0.072-0.26,0.428,0.135,0.533-0.057
		c0.947-1.74,1.068-4.462,1.432-6.476C513.003,59.354,513.475,56.104,513.287,52.891 M394.082,109.688
		c1.243-0.159,1.635,0.613,2.148,1.557c0.813,1.495,1.385,2.734,3.223,3.128c0.835,0.177,1.154-0.046,1.802-0.604
		c0.975-0.834,1.546-0.625,2.694-0.841c1.239-0.231,1.067-2.044,0.366-2.787c1.615-0.72-0.047-1.868-0.196-2.604
		c-0.377-1.856,2.599-3.069,3.676-4.131c0.541-0.535,0.985-1.116,1.441-1.726c0.324-0.431-0.472-0.943-0.142-1.528
		c0.727-1.284,4.526,0.357,4.439-1.445c-0.029-0.628-1.443-1.58-1.725-2.179c-0.405-0.86-0.349-1.953-0.318-2.885
		c0.076-2.369-1.443-1.619-3.188-2.662c-1.415-0.847-2.222-2.858-3.166-4.131c-1.252-1.69-2.734-3.116-3.676-5.067
		c0.897-0.001,6.798,1.638,5.739-0.651c1.721,0.038,1.644,2.352,3.14,1.388c0.304-0.196,0.525-0.918,0.861-1.203
		c0.324-0.275,0.747-0.55,0.788-1.001c0.183-2.042,0.328-4.075,0.437-6.122c0.129-2.402,4.117,0.741,5.718,0.09
		c2.248-0.914,1.281-3.572,0.621-5.292c3.638,0.292,4.396-3.094,2.5-5.663c-1.208-1.637-2.047-4.627-2.425-6.585
		c-0.235-1.229,0.043-2.011-0.866-2.923c-1.063-1.063-1.817-2.345-2.457-3.689c-0.48-1.009-0.896-2.185-0.701-3.314
		c0.188-1.102,0.897-1.305,1.093-2.221c0.446-2.084-1.573-5.532-2.606-7.214c-0.412-0.669-1.09-1.208-1.211-2.041
		c-0.196-1.374,0.621-1.159,1.217-2.052c0.672-1.007-2.086-2.614-2.573-3.692c-0.344-0.764,0.049-0.898-0.791-1.528
		c-0.499-0.375-1.026-0.714-1.606-0.953c-0.322-0.132-0.625-0.271-0.962-0.358c-1.143-0.302-0.193-0.236-0.627-0.896
		c-1.337-2.038-3.106-2.608-5.547-1.604c-2.347,0.967-4.134,2.279-6.685,2.869c-2.296,0.531-5.022,0.332-7.307-0.184
		c-2.249-0.509-5.767-2.128-7.379,0.531c-1.116,1.842-0.515,5.078,0.452,6.862c0.436,0.805,1.7,2.149,1.112,2.951
		c-0.768,1.044-1.536,2.495-1.593,3.826c-0.038,0.907,0.361,1.192,0.622,1.954c0.321,0.943,0.255,1.805-0.113,2.915
		c-0.307,0.924-0.823,1.776-1.41,2.584c-0.985,1.356-0.643,1.919-0.174,3.655c0.575,2.129,1.565,5.7,4.299,5.053
		c-0.625,1.41,2.031,5.285,2.433,6.537c0.727,2.273,1.794,4.41,2.628,6.651c0.747,2.004,0.862,4.364,2.361,5.999
		c0.882,0.962,1.462,2.079,1.905,3.295c0.255,0.703-1.529,0.727-1.896,0.768c-1.96,0.222-0.472,4.219-1.552,5.645
		c-0.728,0.962-1.967,0.904-2.867,1.712c-0.863,0.771,0.319,1.14-1.379,1.589c-0.415,0.11-1.682,0.554-1.803,0.943
		c-0.355,1.142,1.49,2.622,1.47,3.65c-0.015,0.709-0.858,1.387-0.765,2.265c0.1,0.899,0.747,1.414,1.285,2.077
		c0.583,0.72,0.883,0.932,1.021,1.856c0.088,0.594,0.247,1.395,0.791,1.74c1.245,0.792,1.677,1.667,2.672,2.73
		c1.075,1.152,2.611,0.967,3.533,2.094C393.539,107.654,393.257,109.14,394.082,109.688 M380.311,66.304
		c-0.021-0.624-0.104-1.484-0.537-1.981c-0.39-0.448-1.085-0.441-1.385-0.82c-0.445-0.562,0.173-0.89-0.664-1.5
		c-0.679-0.495-1.407-0.392-2.164-0.58c-2.35-0.588-3.56-3.284-5.343-4.655c-1.553-1.193-3.666-1.528-5.543-1.047
		c-0.202-2.427,1.874-0.878,3.024-1.132c1.645-0.361,0.625-1.742,0.623-2.944c0-0.902,0.739-2.405,1.5-3.169
		c0.854-0.86,0.975-0.438,2.034-0.226c1.064,0.214,0.328-0.541,0.565-1.019c0.185-0.371-0.454-0.556,0.142-0.707
		c0.188-0.047,0.499-0.115,0.607-0.269c0.267-0.374,0.245-1.026-0.057-1.373c-0.401-0.46-0.86-0.294-1.201-0.806
		c-0.479-0.719-0.692-1.586-0.879-2.453c-0.458-2.106-0.691-3-2.825-3.801c-0.83-0.313-0.723-0.405-1.243-0.949
		c-0.146-0.154,0.072-0.679-0.085-0.792c-0.552-0.393-1.219,0.066-1.413,0.623c0.047-1.736-2.498-2.047-3.296-3.283
		c-1.089-1.688-2.194-1.383-3.433-0.453c0.052-1.283-1.225-2.391-1.198-3.232c0.044-1.295-0.629-5.137-2.323-5.328
		c-2.113-0.239-5.135-1.036-6.829-2.391c-1.283-1.031-1.418-2.847-2.232-4.218c0.759-0.12,2.609-1.232,3.109-1.981
		c0.94-1.412-3.854-1.361-4.611-1.357c-6.025,0.026-12.055-0.007-18.082,0.029c-3.043,0.018-6.085-0.001-9.129-0.001
		c-2.898,0-5.004-0.508-7.797-1.114c-1.273-0.276-2.666-0.702-3.98-0.556c-0.901,0.1-1.709,0.616-2.601,0.821
		c-1.826,0.418-3.587,0.302-5.231-0.028c-1.547-0.311-2.294-1.334-3.846-1.556c-2.362-0.338-4.625,0.451-6.979,0.215
		c-2.484-0.25-5.129-0.678-7.609-0.244c-2.08,0.363-2.117,1.031-1.271,2.716c-1.163-0.282-2.597-0.186-3.677,0.354
		c-0.865,0.432-1.522-0.759-2.317-0.948c-2.191-0.522-0.101,2.09,0.113,3.198c-0.479-0.273-1.052-0.673-1.5-0.198
		c-0.283,0.301,0.001,0.883,0.085,1.209c0.154,0.625-0.35,0.629-0.366,0.829c-0.056,0.639-0.032,0.553,0.14,1.189
		c0.283,1.039,0.528,0.837-0.168,1.529c-0.188,0.184-2.155,1.289-2.404,1.33c-1.048,0.168-0.33-0.349-1.104-0.893
		c-0.858-0.604-1.942-0.132-2.685,0.424c-0.459,0.346-0.94,0.657-1.387,1.019c-0.799,0.651-0.415,0.56-0.931,0.186
		c-0.761-0.55-0.116-1.494-1.415-1.358c-1.317,0.135-2.251,2.47-3.421,2.915c-1.757,0.667-4.197-0.572-4.75,1.953
		c-0.126,0.569,0.125,1.275-0.142,1.74c-0.183,0.321-1.783,1.206-2.234,1.656c-1.22,1.22-0.91,3.002-2.064,4.103
		c-1.251,1.196-2.8,0.522-4.185,0.735c-0.953,0.148-1.11,0.989-2.034,0.157c-0.715-0.645-0.569-1.57-1.047-2.166
		c-1.057-1.316-1.415,0.145-2.063,0.962c-0.346,0.434-2.078,2.311-2.49,2.349c-0.681,0.066-3.056-1.688-3.789-2.065
		c-2.323-1.195-3.27-2.519-5.98-2.519c-0.836,0-1.745,0.718-2.415,1.157c-0.373,0.242-0.947,0.947-1.273,0.64
		c-0.203-0.187-0.572-0.395-0.877-0.326c-0.81,0.183-1.026,0.915-1.358,1.557c-0.21,0.409-0.292,0.951-0.564,1.33
		c-0.564,0.783-0.926,0.645-1.739,1.218c-0.593,0.418-1.33,1.517-1.259,2.292c0.097,1.055,0.736,0.708,1.16,1.33
		c0.641,0.94,0.182,2.212-0.157,3.339c-0.129,0.436-0.994,1.209-0.791,1.684c0.343,0.8,0.898,1.479,1.599,1.995
		c-2.038-0.377-0.165,2.529,0.164,3.15c0.566,1.072,1.149,2.14,1.691,3.225c0.805,1.611,0.664,1.463-0.358,2.767
		c-2.364-3.234-5.556-6.697-9.882-6.828c-1.056-0.033-3.354,0.129-4.112,1.025c-0.664,0.786-0.792,2.702-1.217,3.68
		c-1.371-0.972-3.034-0.297-4.367,0.41c-2.191,1.16-0.929,2.556-0.778,4.457c-1.229-0.026-3.259-1.932-3.803-0.113
		c-0.442,1.475,0.294,4.991,1.088,6.312c0.302,0.499,1.079,0.8,1.273,1.273c0.283,0.687-0.161,1.95,0.17,2.83
		c0.875,2.336,2.939,4.383,4.452,6.31c0.528,0.673,1.041,1.094,1.909,1.217c1.286,0.184,1.618,0.652,2.841,1.431
		c0.854,0.544-0.785,0.888-1.2,0.946c-1.429,0.2-3.084-0.107-4.468-0.453c-2.435-0.608-2.665,0.157-2.616,2.676
		c0.021,1.026-0.965,1.141-1.258,2.136c-0.307,1.036,0.164,2.256,0.72,3.169c1.072,1.753,0.302,3.328,0.919,5.122
		c0.608,1.767,2.173,2.747,2.72,4.468c0.455,1.429,0.772,2.887,1.116,4.344c0.253,1.074,0.822,0.923,1.423,1.547
		c1.243,1.288,2.138,3.594,1.16,5.009c-0.373,0.538-1.047,0.574-1.116,1.415c-0.091,1.094,0.13,0.814-0.92,1.076
		c-1.64,0.409,0.343,4.449,0.835,5.151c0.89,1.275,0.89,0.836-0.17,2.023c-0.657,0.734,0.104,1.262-1.259,1.203
		c-1.426-0.063-3.15-2.382-4.255-3.141c-0.481-0.33-1.072-0.834-1.696-0.778c-0.477,0.042-1.247,0.728-1.47,0.608
		c-0.297-0.159-0.727-1.037-1.031-1.019c-0.607,0.035-0.799,1.49-0.792,2.038c-1.456-1.608-1.827,0.038-1.555,1.5
		c-0.541-0.421-1.424-0.764-2.121-0.566c-1.097,0.31-0.891,0.579-0.707,1.585c0.244,1.334,0.927,1.85,0.679,3.155
		c-0.252,1.319,0.506,2.855,0.99,4.061c0.414,1.035,0.855,2.096,1.355,3.086c0.344,0.676,0.767,1.324,1.146,1.98
		c0.348,0.604-0.195,1.124-0.226,1.811c-0.033,0.728,1.063,1.193,1.583,1.599c1.009,0.788,1.174,1.784,1.739,2.843
		c0.78,1.464,2.602,1.225,2.602,2.972c0,2.391,1.681,3.398,3.039,4.953c1.276,1.458,2.978,2.01,4.793,2.066
		c2.25,0.069,2.709,1.914,4.793,2.532c0.938,0.278,2.18,3.292,3.053,1.5c1.664-3.419,2.479,1.217,4.141,2.306
		c0.858,0.562,2.377,0.329,3.111,1.19c0.282,0.329,0.148,1.039,0.396,1.385c0.929,1.294,2.089,0.183,2.925-0.847
		c0.412-0.508,0.75-1.325,0.75-1.997c0-0.761,1.143-0.851,1.583-1.315c1.057-1.116,1.047-3.204,1.047-4.652
		c0-1.349,0.105-2.164-0.735-3.215c-0.896-1.117-2.091-1.658-2.459-3.199c-0.798-3.329,2.067-0.281,3.336,0.227
		c0.871,0.351,1.273,0.317,1.767,1.006c0.25,0.35-0.123,0.794-0.014,1.146c0.152,0.492,0.445,0.915,0.734,1.387
		c0.479,0.776,1.49,3.347,2.573,3.339c3.174-0.025-1.998-6.517-2.517-7.133c1.277-0.147,2.079-1.097,1.755-2.476
		c-0.209-0.887-1.186-1.147-1.472-1.995c-0.456-1.349,0.579-2.701-0.154-4.089c-0.258-0.487-1.172-0.956-1.315-1.373
		c-0.159-0.463,0.261-1.52,0.423-2.009c0.415-1.244,0.686-2.173,0.228-3.426c-0.296-0.803-1.094-1.056-0.142-1.854
		c0.8-0.668,1.457-1.443,2.036-2.306c0.428,1.121,0.125,1.847-0.028,2.915c-0.104,0.729,0.623,1.442,1.017,1.982
		c1.278,1.753,2.564,3.553,3.196,5.66c-1.305-0.66-3.748-1.021-3.323,1.089c0.434,2.149,1.298,4.75,2.502,6.607
		c3.622,5.593,3.254-2.816,2.968-5.206c1.188,2.405,4.867,2.801,3.999,6.016c-0.96,3.56,0.016,7.027,1.176,10.483
		c0.691,2.061,1.537,4.066,2.276,6.112c0.563,1.563,1.713,3.581,1.611,5.293c-0.103,1.685-0.999,3.264-1.633,4.801
		c-0.501,1.217-1.198,3.581-2.198,4.226c1.069,0.358,2.774-3.72,3.138-4.527c0.997-2.214,1.578-3.697,1.145-6.098
		c-0.58-3.225-2.066-6.375-3.168-9.444c-0.729-2.03-2.309-5.27-1.511-7.437c0.698,0.929,2.119,0.704,2.347-0.368
		c0.302-1.433-2.017-3.311-1.668-5.321c3.194,0.836,2.679,10.852,5.726,10.514c0.645-0.072,2.199-0.583,2.671-0.382
		c0.662,0.283,0.428,0.91,0.877,1.415c0.602,0.676,1.385,0.764,2.064,1.217c0.686,0.459,2.301-2.248,2.921-2.755
		c1.091-0.895,1.39-2.146,1.208-3.471c-0.132-0.951-0.437-2.225-1.019-3c-0.512-0.682-2.091-0.547-2.374-0.991
		c-0.318-0.496,0.311-1.551,0.31-2.151c-0.003-0.99-0.451-1.978-0.989-2.787c-1.047-1.572-2.88-2.691-4.27-3.947
		c-1.559-1.41-3.43-1.589-4.977-2.886c0.638,0.044,1.731-0.393,1.437-1.187c-0.321-0.875-0.791-1.704-1.097-2.578
		c-0.224-0.638-0.157-1.577-0.453-2.151c-0.621-1.208-2.034-1.998-2.713-3.282c-0.842-1.597-1.497-3.292-2.364-4.883
		c-1.297-2.375-3.32-6.43-6.515-6.692c-1.588-0.13-1.578,2.119-3.109,2.745c0.343-2.721-2.164-2.817-2.855-4.84
		c-0.839-2.46-1.873-3.312-2.248-5.799c-0.126-0.833-0.082-2.405-0.693-3.114c-0.393-0.454-1.633-0.462-1.722-0.693
		c-0.951-2.512-2.435-3.102-4.372-4.612c-1.36-1.06-0.028-2.9-0.749-3.863c-0.3-0.401-0.794-0.516-1.271-0.467
		c-0.875,0.086-0.563-0.339-1.076-1.033c-0.438-0.593-1.019-0.803-1.526-1.273c-0.558-0.516-0.868-1.291-1.668-1.641
		c-0.808-0.354-1.753-0.129-2.573-0.61c-1.241-0.725-0.335-1.592-0.876-2.814c2.798-0.108,3.031,3.256,5.229,3.806
		c0.802,0.2,3.046,0.767,3.733,0.352c0.785-0.473,0.566-1.658,1.215-2.404c1.072,1.098,1.927,2.415,2.784,3.687
		c0.168,0.25,1.938,2.262,1.938,2.214c0,1.644,0.152,5.408,2.091,6.042c-0.657,0.973-0.808,2.043,0.201,2.748
		c1.883,1.313,2.728,2.641,3.795,4.674c0.313,0.599,0.604,1.835,1.504,1.706c1.668-0.239,1.3,0.968,2.319,2.08
		c1.28,1.396,2.676-0.467,3.907,1.396c1.137,1.725,2.378,3.38,3.526,5.1c0.994,1.493,4.157,7.241,6.463,5.758
		c0.973,2.677,2.69,4.986,4.808,6.87c0.978,0.869,2.043,1.619,2.992,2.526c0.825,0.794,0.632,1.317,1.349,2.094
		c1.85,1.998,3.987,3.172,6.502,3.952c0.732,0.227,1.741,1.066,2.361,1.113c0.476,0.037,1.1-0.449,1.556-0.608
		c0.768-0.271,0.752,0.115,1.271,0.184c0.582,0.077,0.918,0.223,1.557,0.142c0.691-0.089,0.798-0.434,1.33-0.255
		c0.459,0.156,0.846,0.921,1.398,1.132c1.022,0.39,1.623,0.016,2.588-0.085c0.314-0.033,0.494-0.654,0.768-0.299
		c0.346,0.45,0.723,1.108,1.238,1.402c0.99,0.565,2.957,0.067,3.704-0.679c0.356-0.357,0.354-0.824,0.622-1.188
		c0.293-0.401,1.043-0.792,1.358-1.344c0.736-1.288-0.091-2.155,0.083-3.155c0.084-0.479,0.563-1.171,0.722-1.698
		c0.296-0.989-0.674-2.007-0.212-3.228c0.822,0.225,0.885,0.858,1.3,1.5c0.772,1.193,1.758,2.135,2.946,2.929
		c2.15,1.436,4.132,2.978,6.194,4.546c0.807,0.612,1.202,1.234,2.226,1.525c1.327,0.379,1.805-0.041,2.376,1.386
		c0.447,1.123,0.487,2.464,0.903,3.622c0.283,0.785,0.752,1.376,0.977,2.123c0.341,1.14,2.206,2.641,3.039,3.481
		c1.702,1.714,3.751,2.355,5.656,3.679c1.841,1.28,3.576,2.804,5.399,4.019c1.92,1.278,3.258,0.879,5.344,1.245
		c0.813,0.145,2.358,0.645,3.053,1.075c0.909,0.563,0.533,0.678,1.09,1.473c0.454,0.649,1.154,0.472,1.852,0.623
		c0.938,0.201,2.3,1.121,3.253,0.962c1.05-0.176,2.235-0.769,3.279-1.075c0.758-0.224,0.392,0.372,0.934-0.341
		c0.791-1.041,0.35-4.313-0.198-5.377c-0.534-1.039-1.163-1.927-1.575-3.07c-0.465-1.295-0.078-1.047,0.33-1.995
		c0.592-1.377,0.339-2.828,0.708-4.357c0.261-1.086,0.307-1.791,0.142-2.888c-0.096-0.636-0.325-0.656-0.229-1.245
		c0.052-0.31,0.399-0.853,0.568-1.146c1.35-2.364-1.104-5.063-1.324-7.409c-0.075-0.805-0.431-2.507,0.588-2.735
		c0.572-0.129,1.178,0.758,1.781,0.835c1.662,0.208,1.245-2.956,0.848-3.723c1.544-0.076,1.926-1.278,2.573-2.264
		c0.131-0.2-0.165-0.843,0.152-0.852c0.879-0.027,1.758-0.052,2.637-0.079c0.526-0.014,1.217,0.023,1.648-0.314
		c0.29-0.225,0.189-1.031,0.44-1.104c0.712-0.205,1.06,0.957,1.737,0.849c0.835-0.133,1.382-2.207,1.923-2.631
		c1.413-1.108,2.207-1.379,2.207-3.495c0-1.057-0.49-2.03-0.825-3.006c-0.208-0.604-0.342-1.212-0.438-1.839
		c-0.085-0.535,0.429-0.126,0.669-0.434c0.819-1.053,1.523-2.167,0.041-3.537c-0.975-0.901-1.854-1.802-2.246-3.113
		c-0.575-1.931-0.096-2.458,1.81-2.49c0.666-0.012,2.527,0.692,2.854,0.227c0.428-0.612-0.44-1.508-0.96-1.728
		c0.773-0.081,4.151,2.177,4.028,1.19c-0.084-0.678-0.849-1.442-0.41-2.151c0.979-1.583,1.316,1.001,1.668,1.414
		c0.642,0.75,1.86,0.601,2.792,0.833c0.863,0.217,2.477,1.458,3.259,1.319c0.889-0.155,1.34-1.525,2.234-1.98
		c0.577-0.294,1.264-0.34,1.838-0.736c-0.018,0.737-1.008,0.923-0.734,1.669c0.381,1.044,2.65,0.902,3.138,1.924
		c0.357,0.751-0.327,1.929,0.595,2.391c0.563,0.285,1.267-0.605,1.581-0.976c0.503,0.582,0.667,1.855,1.557,1.966
		c1.418,0.178,1.674-2.529,2.148-3.381c0.538-0.964,3.667-2.952,1.188-3.452c-0.346-0.071,0.028-1.104,0.085-1.388
		c0.251-1.262,0.593-1.339,0.368-2.773c-0.164-1.041-0.174-2.012-0.057-3.056c0.084-0.766,0.687-0.799,0.82-1.33
		c0.304-1.203-0.252-3.984-0.637-5.25c-1.105-3.63-2.786-7.161-5.558-9.891c2.575-0.34,5.68-0.14,7.466-2.236
		C380.39,71.415,380.569,68.664,380.311,66.304 M234.443,147.329C234.48,147.421,234.488,147.44,234.443,147.329 M232.493,144.527
		C232.447,144.571,232.447,144.571,232.493,144.527 M253.19,146.989c0.906-1.286,2.151,1.081,1.159,1.387
		C253.675,148.583,253.192,147.389,253.19,146.989 M224.519,70.663c-1.137-0.703-1.478-2.188-0.962-3.397
		c0.657,1.05,1.27,2.272,1.613,3.482C224.953,70.72,224.736,70.691,224.519,70.663 M427.727,150.469
		c1.372,0.021,3.109-0.245,4.227,0.603c1.035,0.785,2.305,1.226,3.452,1.818c2.562,1.322,4.934,2.911,7.364,4.455
		c4.3,2.734,6.886,7.257,10.254,11.131c3.588,4.125,7.705,7.75,11.178,11.983c3.581,4.366,5.313,9.797,7.158,15.026
		c0.556,1.583,0.805,4.878,2.172,5.866c0.714-2.832-1.685-7.239-2.611-9.968c-1.45-4.284-3.473-8.133-6.237-11.711
		c-2.756-3.566-6.22-6.508-9.273-9.791c-1.595-1.712-3.256-3.43-4.652-5.306c-1.102-1.48-2.6-3.029-3.548-4.569
		c2.671,1.435,5.107,3.11,7.222,5.301c1.482,1.536,2.784,3.738,4.284,4.888c-1.229-1.546-1.867-3.748-3.476-5.406
		c-1.792-1.849-3.976-3.157-6.124-4.537c-4.834-3.111-9.669-6.293-14.794-8.911c-2.124-1.084-3.479-1.911-6.012-1.638
		c-2.647,0.286-5.3,0.371-7.948,0.667c-5.729,0.638-11.338,2.285-16.864,3.859c-3.318,0.944-7.107,2.024-9.614,4.532
		c0.872,0.122,2.479-1.007,3.391-1.445c1.328-0.64,2.697-1.186,4.081-1.691c2.779-1.019,5.659-1.718,8.515-2.493
		C415.655,151.563,421.737,150.657,427.727,150.469 M485.209,225.691c-2.399-4.275-5.375-8.222-7.549-12.622
		c-0.85-1.717-1.442-3.542-1.953-5.386c-0.475-1.718-0.89-4.398-2.119-5.679c0.095,2.128,0.915,4.521,1.51,6.565
		c0.407,1.405,0.726,4.611,0.033,5.999c-0.417,0.832-0.601,2.347-1.826,2.447c-1.993,0.167-3.107-2.326-3.873-3.834
		c-0.64-1.261-0.929-2.897-2.516-3.196c-1.031-0.194-7.572-0.674-7.889-1.416c-0.959-2.242,7.679-7.956,9.923-8.18
		c-2.398-2.047-10.398,6.383-12.259,7.964c-2.16,1.837-4.357,3.252-6.731,4.787c-0.472,0.307-2.923,1.593-2.923,2.149
		c0,0.734,0.487,1.987,0.639,2.797c0.308,1.645,2.358,9.799-1.485,8.82c-1.987-0.506-2.775-3.478-3.319-5.157
		c-0.418-1.286-0.817-4.855-2.024-5.653c-0.776-0.515-2.539,0.176-3.447,0.238c-1.451,0.101-2.897,0.234-4.349,0.326
		c-1.634,0.101-3.267,0.179-4.903,0.251c-0.984,0.044-2.733-0.201-3.446,0.345c1.889,0.911,6.047-0.015,8.141-0.108
		c1.273-0.057,2.548-0.169,3.82-0.26c0.647-0.047,3.161-0.652,3.76-0.283c1.113,0.688,1.75,4.852,2.206,6.086
		c0.444,1.202,0.815,2.854,1.767,3.806c2.574,2.573,4.732,0.208,4.737-2.872c0.001-1.215-0.173-2.375-0.396-3.567
		c-0.181-0.96-1.041-3.453-0.735-4.357c0.506-1.492,5.148-3.437,6.69-4.488c2.681-1.828,4.981-1.867,7.954-1.171
		c1.316,0.308,2.67,0.359,3.982,0.709c1.369,0.364,2.25,2.896,2.926,4.11c3.055,5.493,6.439,1.662,6.665-2.839
		c1.878,2.267,3.066,5.691,4.727,8.227c1.548,2.366,2.938,5.444,4.744,7.509C485.908,227.015,485.678,226.309,485.209,225.691
		 M365.015,143.197c-1.055-1.452-0.278-3.176-0.381-4.831c-0.119-1.912-0.968-4.304-2.021-5.895
		c-0.575-0.868-1.364-1.593-2.037-2.377c-0.929-1.083-0.896-1.678-0.805-3.204c0.053-0.909-0.729-2.391-1.655-1.24
		c-0.477-0.827-1.298-1.369-2.234-1.571c-0.918-0.196-0.965-1.3-1.937-1.754c-1.051-0.492-2.951-0.196-3.972,0.212
		c-1.6,0.64-0.743,1.808-1.245,3.313c-0.273,0.822-0.792,1.663-1.553,1.811c-1.308,0.251-2.393-0.759-1.33,0.849
		c0.55,0.832,0.9,0.777,0.962,1.698c0.059,0.89-0.544,1.795-0.454,2.717c0.135,1.358,1.099,2.85,1.613,4.216
		c-3.493-0.33,2.004,5.196,2.228,5.443c0.534,0.586,4.304,3.777,4.26,3.896c-0.687,1.926,1.631,0.516,2.248,0.156
		c0.557-0.324,1.214-0.363,1.812-0.113c1.003,0.42,0.17,1.116,0.593,1.797c0.577,0.928,2.155,0.694,3.026,0.255
		c0.472-0.239,1.285-0.667,1.609-0.906c0.355-0.261,1.158-0.113,0.832-0.814c-0.536-1.148-0.819-1.221,0.017-2.143
		C365.021,144.236,365.424,143.826,365.015,143.197 M357.833,151.261c-0.282-0.407-2.356-1.749-2.658-0.849
		C354.791,151.565,358.459,152.857,357.833,151.261 M210.723,20.883c4.892,1.251,10.36,2.713,15.472,2.201
		c1.997-0.201,3.811-1.692,5.73-1.692c1.259,0,2.498-0.039,3.705,0.17c0.943,0.162-0.088,1.093,1.585,0.028
		c1.987-1.266,3.811-2.863,5.994-3.793c0.552-0.236,3.746-1.194,3.224-2.434c-0.342-0.811-4.333-0.197-4.949-0.142
		c-2.654,0.241-5.354,0.84-7.958,1.391c-4.323,0.917-8.725,1.486-13.108,2.042C219.086,18.823,210.072,19.315,210.723,20.883
		 M180.553,138.724c-0.149-1.105-0.399-1.691-0.255-2.716c0.152-1.079,0.486-1.927,0.039-3.042c-0.478-1.2-1.102-2.328-1.748-3.444
		c-0.448-0.775,0.506-1.759,0.805-2.57c0.358-0.975,0.374-2.146,0.791-3.084c0.426-0.956,1.454-1.558,1.895-2.49
		c0.418-0.883,0.075-2.305,1.217-2.589c1.707-0.427,3.229-0.985,2.541-2.825c-0.412-1.101-1.006-1.879-1.016-2.849
		c-0.006-1.108,0.713-2.317,0.651-3.426c-0.079-1.383-2.231-1.982-1.695-3.056c0.472-0.948-0.481-1.003-0.99-1.726
		c-0.673-0.954-1.014-2.256-1.679-3.27c-0.417-0.632-0.887-1.208-1.317-1.823c0.807-0.366,0.704-1.624,0.96-2.407
		c0.338-1.03,1.225-1.58,1.64-2.49c0.409-0.895,0.273-0.972-0.28-1.938c-0.613-1.077-0.258-1.979-0.101-3.127
		c0.107-0.799-0.566-1.956-0.227-2.632c0.393-0.786,0.135-2.053-0.298-2.773c-0.421-0.704-1.11-0.88-1.821-1.49
		c-0.973-0.835-1.034-1.45-1.487-2.558c-0.962-2.349-2.896-4.521-4.487-6.523c-0.83-1.045-0.61-1.891-2.185-2.051
		c-0.733-0.076-1.423,0.428-2.179,0c-1.091-0.62-0.725-1.426-0.805-2.547c-0.054-0.74-0.384-1.478-1.003-1.912
		c-0.799-0.558,0.33-2.225,0.254-2.815c-0.206-1.577-2.131-2.023-3.251-2.83c-0.839-0.604-1.063-1.269-1.698-2.009
		c-0.805-0.94-2.342-1.13-3.024-2.038c-0.56-0.745-0.871-1.583-2.066-1.104c-0.223-0.94,0.085-1.945-0.649-2.745
		c-0.671-0.731-1.212-0.264-2.036-0.709c-0.648-0.349-1.824-3.341-2.232-1.245c-0.11-1.212,0.523-5.518-0.368-6.254
		c-0.268-0.22-1.127,0.126-1.472,0.113c-0.292-0.011-0.583,0-0.875-0.014c-0.678-0.033,0.021-0.354-0.34-0.523
		c-0.476-0.225-0.932-0.805-1.668-0.312c-0.181,0.121-1.372-0.976-2.037-0.704c-1.494,0.61-2.276,1.24-3.449,2.317
		c-1.915,1.759-4.009,3.339-6.248,4.666c-2.283,1.354-4.323,2.633-6.107,4.646c-1.813,2.044-1.572,3.748-2.577,6.061
		c-1.058,2.438-2.949,5.851-3.248,8.486c-0.088,0.785-0.094,0.804,0.324,1.642c0.563,1.122-0.156,1.921-0.734,2.858
		c-1.354,2.194-2.831,4.218-3.789,6.636c-0.351,0.887-1.045,1.944-1.13,2.888c-0.08,0.876,0.727,1.229,1.088,1.91
		c0.525,0.984,0.129,1.27,0.014,2.08c-0.055,0.388-0.637,0.856-0.778,1.301c-0.232,0.742-0.047,1.71-0.016,2.47
		c0.091,2.089-1.512,3.534-1.001,5.836c0.231,1.045,0.714,2.014,1.344,2.874c0.792,1.082,0.159,2.498-0.044,3.834
		c-0.258,1.706-0.044,2.402-1.506,3.314c-1.163,0.725-2.232,1.631-3.223,2.572c-0.987,0.938-3.188,2.655-4.658,2.434
		c-1.659-0.25-1.086-2.511-2.404-2.575c-0.896-0.044-2.066,2.135-2.448,2.767c-0.671,1.105-0.87,0.795-1.849,1.408
		c-0.671,0.418-1.184,2.383-1.514,3.113c-0.651,1.437-1.097,2.594-2.104,3.778c-3.823,4.49-7.42,9.231-10.817,14.048
		c-2.837,4.024-5.965,7.987-9.203,11.848c-3.385,4.033-5.926,8.763-9.141,12.888c-1.435,1.841-4.508,4.352-4.572,6.78
		c-0.554,0.021-0.645,0.653-1.018,1.089c-1.208,1.412-2.62,2.502-3.973,3.702c-1.135,1.007-2.304,1.961-3.542,2.838
		c-1.395,0.987-0.187,2.613,0.164,4.145c1.483,6.5,2.421,12.729,0.735,19.328c-0.021-0.095-0.003-0.179,0.057-0.255
		c0.011,0.021-0.247,0.107-0.283,0.085c0.17-0.657,0.063-0.67-0.17-0.028c-0.504-0.661-0.022-2.716,0.028-3.594
		c0.086-1.467,0.176-2.932,0.156-4.4c-0.042-2.979-0.378-5.733-1.032-8.646c-0.406-1.814-0.653-3.667-1.555-5.32
		c-1.225-2.248-4.053-1.436-6.136-0.68c-9.552,3.467-7.576,16.462-4.301,23.828c0.289,0.649,0.637,1.293,0.937,1.954
		c-1.76-2.485-3.824-5.118-4.198-8.25c-0.441-3.679-0.186-7.107,0.758-10.679c0.291-1.103,0.232-3.086,0.896-3.995
		c0.541-0.74,2.069-0.791,2.517-1.557c0.594-1.019-0.763-0.761-1.838-0.737c-0.989,0.024-2.953,0.064-2.686,1.559
		c-2.532-0.575-2.79,2.021-2.955,3.834c-0.192,2.109-0.967,4.065-2.021,5.816c-0.774,1.283-1.483,2.482-2.008,3.863
		c-0.301,0.792-0.449,1.612-0.735,2.447c-0.453,1.323-0.023,2.517-0.198,3.735c-0.316,2.209-2.618,3.74-4.176,5.048
		c-2.019,1.694-4.115,3.527-5.84,5.53c-3.286,3.813-5.124,8.194-4.545,13.393c0.212,1.905,0.887,5.578,2.502,6.836
		c1.931,1.499,0.97,4.433,0.792,6.394c-0.526,5.786-0.949,11.386-2.094,17.104c-0.585,2.923-1.647,5.692-2.303,8.579
		c-0.239,1.054-0.702,2.584-0.636,3.65c0.073,1.171,0.798,2.158,0.841,3.311c0.029,0.773-0.345,2.424-0.063,3.029
		c0.239,0.513,1.155,0.616,1.414,1.443c0.528,1.687-0.789,3.07-1.979,4.133c-2.016,1.796-3.979,4.765-2.572,7.471
		c-0.862,0.428-2.001,1.105-2.036,2.094c-0.006,0.17,0.685,0.477,0.735,0.651c0.025,0.088-0.137,0.737-0.126,0.923
		c0.068,1.267-0.077,1.833-0.424,2.927c-0.365,1.146,0.77,2.602,1.3,3.635c0.739,1.438,1.664,4.063,3.52,4.373
		c1.931,0.321,3.195-2.331,4.072-3.678c1.038,1.482,2.303,3.477,4.439,3.11c1.534-0.263,1.721-2.328,2.954-2.519
		c1.425-0.218,2.438-1.542,2.927-2.829c0.335-0.884,0.222-1.663,0.282-2.604c0.113-1.753,1.25-2.119,2.545-3.197
		c3.137-2.616,7.4-2.031,10.461-4.599c0.906-0.761,1.529,1.037,2.658-0.835c0.459-0.764,0.481-1.936,1.261-2.336
		c1.427-0.737,2.861-1.459,4.285-2.204c1.65-0.864,2.077-2.058,2.862-3.632c0.526-1.052,1.148-2.083,1.941-2.95
		c0.633-0.695,1.471-1.064,1.471-2.096c0-1.147-0.559-2.367-0.748-3.5c-0.11-0.661,1.499-2.295,1.907-2.952
		c0.433-0.697,0.882-1.352,1.102-2.15c0.385-1.392,0.239-1.338,1.506-2.068c1.847-1.066,2.99-2.949,3.87-4.828
		c1.008-2.152-0.905-3.841-2.42-5.095c-1.249-1.036-1.164-0.909,0.071-1.706c0.825-0.533,1.676-1.036,2.488-1.613
		c1.664-1.184,3.862-2.488,4.877-4.315c1.486-2.676,3.714-5.113,4.185-8.25c0.273-1.817,0.323-3.625-0.453-5.348
		c-0.529-1.177-0.601-1.188-0.212-2.293c0.25-0.709,1.214-2.051,0.99-2.857c-0.633-2.278-6.645-2.126-4.608-5.689
		c0.317-0.554,2.308,0.514,3.139-0.184c0.647-0.544,0.874-1.664,1.476-2.291c0.68-0.709,1.406-1.266,2.228-1.77
		c0.031,0.545,0.056,2.468,0.452,2.744c0.6,0.418,3.642-0.905,4.381-1.116c0.969-0.274,1.775-0.73,2.546-1.374
		c1.289-1.073,0.549-1.496-0.678-2.207c3.167-1.314,3.752-1.176,3.597-5.043c-0.013-0.301-0.225-1.294-0.063-1.552
		c0.069-0.111,0.557-0.026,0.651-0.142c0.272-0.338,0.754-0.729,1.072-1.019c1.537-1.39,2.271-1.228,4.156-1.585
		c0.117,1.016,1.295,0.593,1.698-0.085c0.214,1.252,0.739,1.645,1.95,1.304c0.314-0.09,0.706-0.268,0.99-0.525
		c0.531-0.477,0.45-0.047,0.906-0.212c0.292-0.105,1.718-0.58,1.668-0.354c-0.387,1.741,0.69,1.673,2.036,1.627
		c-0.176,0.748-0.355,2.643,0.821,2.349c0.931-0.232,0.959-1.521,2.063-0.691c0.836,0.625,1.622,2.754,2.63,2.872
		c0.253,0.028,0.589-0.453,0.892-0.554c0.798-0.266,1.924-0.108,2.756-0.069c-0.555,0.711-2.538,0.772-2.417,1.854
		c0.116,1.05,2.663,0.333,3.207,0.128c1.427-0.543,2.237-2.224,3.536-2.549c2.187-0.546,4.598-2.161,6.664-3.099
		c1.767-0.802,3.474-1.055,5.398-1.106c1.599-0.044,3.893,0.47,4.902-1.042c1.894-2.843,1.869-6.708,1.754-10.175
		c0.508,0.187,1.063,0.227,1.582,0.069c1.383-0.414,1.1,0.267,1.839,1.006c1.591,1.589,0.997-0.467,0.621-1.671
		c0.895-0.354,1.932,1.078,2.63,0.495c1.113-0.926-1.011-3.385,0.368-4.273c0.868-0.558,0.613-1.57,1.583-1.754
		c1.503-0.286,2.354,0.171,1.385-1.769c-0.651-1.304-2.984-2.825-2.276-4.245c0.732-1.467-0.069-3.989-0.273-5.538
		c-0.18-1.377,0.819-1.363,1.814-2.132c1.069-0.823,1.561-1.411,0.198-2.349c1.775-2.122,2.921-2.971,5.628-3.452
		c1.349-0.24,2.556-0.396,3.929-0.396c1.001,0,2.103,0.523,3.083,0.368c1.569-0.25,1.594-1.341,2.176-2.462
		c0.786-1.509,2.204-0.812,3.649-1.019c1.847-0.266,3.284-2.263,5.004-2.477c0.703-0.089,1.374-0.591,1.924-0.921
		c0.688-0.413,0.577-1.161,0.932-1.528c0.443-0.457,1.445-0.446,1.753-1.047c0.191-0.374-0.286-0.862-0.113-1.33
		c0.339-0.916,0.321-0.655,1.019-0.48c0.686,0.171,1.097-0.533,1.498-0.99c0.706-0.807,2.302-2.683,2.093-3.835
		c-0.093-0.511-0.483-0.859-0.384-1.358c0.186-0.919,0.582-1.695,0.924-2.556C180.437,141.717,180.792,140.237,180.553,138.724
		 M25.75,226.823c-1.321,0.108-0.805-1.14-1.47-1.697c-0.713-0.601-1.519,0.379-1.356-0.934c0.085-0.703,3.081-3.214,3.789-2.575
		c0.223,0.201-2.604,2.293-2.885,2.942c0.639,0.057,4.496-3.877,4.496-1.302C28.324,224.465,27.149,227.034,25.75,226.823
		 M29.455,225.012c-0.449,1.053-0.483,2.361-1.442,3.084c-0.638,0.481-1.839,0.724-1.895-0.367c1.641-0.379,2.494-2.804,3.11-4.188
		C29.425,224.004,29.502,224.507,29.455,225.012 M38.192,187.827C38.253,187.745,38.378,187.58,38.192,187.827 M56.344,200.25
		c-0.557,3.081-4.613,7.817-7.409,4.047c-1.574-2.124-2.695-5.235-3.54-7.721c-0.727-2.137-1.472-4.24-1.619-6.515
		c-0.316-4.898,0.21-10.681,4.99-13.104c1.101-0.558,2.303-0.984,3.534-1.134c1.616-0.193,1.938,0.09,2.799,1.445
		c1.313,2.065,1.281,3.529,1.41,5.912C56.824,188.951,56.953,194.499,56.344,200.25 M56.795,202.797
		c0.028-0.293,0.336-1.098,0.51-1.559C57.136,201.758,56.965,202.279,56.795,202.797 M66.89,169.882
		c-0.72,0.76-2.207,0.724-3.223,1.02c0.773-0.917,1.545-1.604,2.459-2.349C66.381,168.971,66.813,169.6,66.89,169.882
		 M85.325,201.949c-0.604,1.79-2.421-0.863-0.707-1.162C84.896,201.349,85.488,201.343,85.325,201.949 M94.628,173.419
		c-0.324,1.054-0.827,1.598-0.95,2.577c-0.089,0.729-0.825,2.238-1.399,2.717c-0.607,0.506-1.777,0.251-2.778,0.609
		c-0.992,0.355-1.135-1.067-2.028,0.451c-0.225,0.379-1.68,1.041-2.191,1.415c-0.619,0.454-1.224,1.22-1.541,1.825
		c-0.897,1.714,0.406,1.06,0.876,2.405c-0.995,0.284-0.499,0.94-0.763,1.643c-0.525,1.39-1.544,2.175-0.269,3.565
		c1.231,1.343,3.781-0.403,5.527-0.567c-1.106,1.064,0.312,1.371,0,1.982c-0.009,0.018-2.385,0.409-2.644,0.495
		c-0.638,0.213-1.451,0.706-1.851,1.26c-1.446,2.001,2.395,5.579,0.848,6.593c-0.195-0.335-0.541-0.485-0.976-0.679
		c-0.465-0.206,0.237-0.866,0.127-1.132c-0.097-0.233,0.605-0.407-0.092-0.433c-0.62-0.021-1.249-0.16-1.803-0.19
		c-0.998-0.054-1.646-0.137-2.248,0.865c-0.229,0.38-2.571,0.323-3.237,0.72c-0.678-1.183,2.38-3.802-0.396-3.764
		c-0.813,0.011-0.784,0.873-1.81,0.255c-0.511-0.309,0.205-1.563,0.17-2.094c0.549,0.452,1.33,0.146,0.834-0.566
		c-0.772-1.106-0.278-1.645,0.126-2.717c0.105-0.278,0.21-0.805,0.339-1.019c0.119-0.198,0.614-0.41,0.623-0.454
		c0.139-0.673,0.12-1.186-0.538-1.613c1.115-0.604-0.311-1.343-0.311-2.179c0-1.026,1.707-1.895,0.566-2.914
		c0.264-0.189,0.815-0.783,0.65-1.16c-0.249-0.568-2.12,0.281-2.601,0.452c1.054-1.308,1.903-5.148-0.453-5.235
		c-0.539-0.02-1.347,1.007-1.739,0.098c-0.215-0.5,1.053-2.145,1.337-2.597c0.228-0.361,1.156-0.019,1.618-0.217
		c0.484-0.209,0.606-0.686,0.99-0.99c1.2-0.958,2.596-1.523,3.709-2.639c1.508-1.511,2.59-2.647,4.758-3.239
		c0.936-0.257,1.879-0.37,2.848-0.398c1.846-0.057,0.588,0.69,1.55,1.322c0.635,0.418,2.587-0.717,3.194-1.019
		c-0.561,1.379,0.249,2.429,0.509,3.594c0.098,0.434-0.245,1.025,0.028,1.613C93.542,172.709,94.314,173.118,94.628,173.419
		 M149.762,200.333c-0.608-4.267-1.454-8.808-4.128-12.169c1.484,2.979,2.51,6.705,3.083,10.075
		c0.362,2.137,0.513,4.317,0.692,6.474c0.06,0.736,0.56-0.333,0.594-0.616C150.147,202.926,149.854,201.513,149.762,200.333
		 M166.812,216.126c-0.761-3.692-0.44-7.678-0.728-11.431c-0.329-4.262-0.319-8.371-0.206-12.653
		c-0.931,5.589-0.402,10.946-0.231,16.562c0.072,2.354-0.055,4.803,0.332,7.125c0.101,0.604,0.151,1.859,0.72,2.266
		C167.876,218.831,166.863,216.464,166.812,216.126 M161.551,211.4c-0.45-4.129-0.905-9.012-0.111-13.104
		c-0.733,2.645-1.152,5.578-1.018,8.477c0.103,2.17,0.307,4.308,0.673,6.447c0.057,0.323,0.445,0.89,0.741,0.443
		C162.116,213.241,161.621,211.852,161.551,211.4 M265.745,185.476c-2.615,0.127-4.955,1.684-7.295,2.688
		c-2.471,1.061-5.005,1.993-7.629,2.602c-2.902,0.671-6.741,0.784-9.215,2.523c-1.39,0.976-2.814,1.872-4.304,2.687
		c-0.805,0.438-2.016,0.743-2.601,1.33c1.714,0.983,6.153-2.598,7.563-3.555c1.152-0.783,2.978-0.896,4.309-1.198
		c1.811-0.408,3.625-0.808,5.416-1.302c3.147-0.867,6.18-1.95,9.173-3.255C261.854,187.693,266.641,186.289,265.745,185.476
		 M235.885,152.535c-0.799-3.397-2.789-0.987-2.034,1.401C234.392,155.661,236.451,154.239,235.885,152.535 M219.43,164.959
		c-0.722-0.492-0.917-2.882-2.291-2.023c-0.313,0.194-0.61,1.916-0.849,2.192c-0.541,0.631-1.273,0.733-1.343,1.771
		c-0.151,2.261-0.494,4.119,1.217,5.828c1.132,1.133,0.105,3.021,0.245,4.387c0.04,0.371,1.06,1.354,1.295,1.77
		c0.668,1.172,1.08,2.257,1.385,3.452c0.203,0.789,0.196,1.609,1.017,2.022c0.657,0.33,1.556-0.241,1.924-0.057
		c1.248,0.629,1.33,0.118,1.591-1.019c0.132-0.573,0.201-1.233,0.528-1.627c0.091-0.106,0.481-0.069,0.623-0.227
		c0.324-0.359,0.504-0.715,0.82-1.132c0.562-0.74,1.723-1.398,2.289-2.207c0.753-1.073,1.871-3.403,1.613-4.783
		c-0.164-0.862-0.421-1.291-0.453-2.151c-0.035-0.902,0.138-1.74-0.099-2.646c-0.184-0.704-0.611-1.428-1.271-1.782
		c-0.984-0.527-0.907-0.384-1.415-1.401c-0.701-1.405-1.984-0.374-2.05,0.877c-1.648-0.516-1.042-1.677-0.764-3.053
		c0.249-1.226-1.314-0.336-1.525,0.448c-0.901-1.555-2.302,0.052-0.934,1.444C220.466,165.033,219.948,165.004,219.43,164.959
		 M195.144,208.4c0.541-11.429,2.5-23.909-0.358-35.165c-0.654-2.571-1.165-5.552-2.396-7.922c-1.119-2.157-0.906-2.756-3.466-2.179
		c-2.407,0.54-5.532,1.119-7.551,2.631c-1.251,0.94-0.275,0.788,0.703,0.357c1.385-0.611,2.74-1.25,4.189-1.703
		c0.749-0.232,2.868-1.058,3.647-0.82c0.811,0.247,1.138,1.451,1.528,2.191c1.218,2.308,1.855,5.035,2.374,7.573
		c1.104,5.399,1.292,11.061,1.132,16.555c-0.321,10.93-0.892,21.645-2.687,32.434c1.627-0.207,1.39-0.929,1.64-2.49
		c0.164-1.014,0.311-2.031,0.418-3.053C194.609,214.007,194.93,211.209,195.144,208.4 M192.568,181.741
		c1.88-0.424-0.499-1.823-0.847-2.391c-0.37-0.605-0.131-2.995-1.187-2.704c-0.594,0.165-0.421,0.701-0.538,1.161
		c-0.069,0.274-1.187-0.152-1.187,0.75c0,0.525,1.159,0.183,1.159,0.75c0,0.522-0.041,1.036,0.283,1.472
		C190.73,181.421,191.833,181.678,192.568,181.741 M235.8,189.779c0.899-1.976,2.167-3.793,3.019-5.796
		c0.578-1.358,1.228-2.668,1.934-3.965c0.409-0.755,1.627-1.957,1.525-2.861c-0.219-1.904-2.072,0.72-2.828,1.146
		c-0.505,0.282-1.038,0.405-1.611,0.325c-0.836-0.116-1.079-0.936-1.613-1.075c-1.317-0.35-2.26,1.864-3.116,2.723
		c-1.226,1.226-3.776-0.962-4.32,1.975c-0.212,1.147,0.14,2.311-0.028,3.48c-0.151,1.05-0.484,1.813-0.887,2.774
		c-0.601,1.434-0.882,1.675-2.336,1.33c-0.789-0.188-2.23-0.81-1.866,0.82c-1.866-0.688-2.044,2.858-2.63,3.735
		c-0.582,0.871-1.479,1.258-1.765,2.547c-0.203,0.91-1.352,1.34-1.401,2.519c-1.49-0.583-1.019,2.895-1.019,3.652
		c0,1.184-0.129,2.309-0.332,3.474c-0.108,0.619-1.194,0.74-1.265,1.591c-0.12,1.426,0.492,3.627-0.607,4.726
		c-0.209,0.209-0.686,0.26-0.792,0.623c-0.186,0.635,0.596,2.114,0.594,2.886c-0.003,1.396-0.786,2.461-1.118,3.792
		c-0.329,1.319,1.067,2.719,1.767,3.624c0.454,0.588,2.086,2.237,1.558,3.104c-0.786,1.293-1.767,2.583-1.162,4.168
		c-1.174,0.165-5.909,0.077-4.749,2.434c-0.789-0.577-1.585-1.039-2.517-1.371c-1.597-0.57-0.775-1.887-2.982-1.016
		c-1.833,0.724-3.798,4.48-3.521,6.491c-1.264,0.09-3.408,0.028-3.747,1.387c-0.181,0.722-1.206,2.12-2.007,1.854
		c-1.525-0.508-1.39,6.258-1.308,7.159c0.094,1.044,1.011,0.719,1.011,2.091c0,1.168,1.539,1.295,1.979,2.396
		c0.588,1.469,0.016,3.808-0.05,5.369c-0.05,1.204,2.478,1.262,3.216,1.31c-1.641,2.529,0.987,0.959,1.528,0.962
		c0.588,0.003,0.901,0.63,1.498,0.622c0.404-0.005,1.237-0.444,1.583-0.679c2.459-1.66,3.937-4.612,6.093-6.367
		c0.862-0.701,1.803-1.034,2.418-1.98c0.547-0.846,0.715-1.929,1.102-2.858c0.423-1.014,0.915-2.07,1.638-2.906
		c0.397-0.463,2.567-2.58,2.462-3.052c-1.091-4.929,2.581-10.778,3.344-15.672c0.192-1.225,0.335-2.395,0.226-3.638
		c-0.173-1.954,0.168-2.325,1.11-3.938c1.778-3.05,2.589-7.142,3.707-10.496C229.745,202.565,232.57,196.026,235.8,189.779
		 M233.115,156.525c-1.22-1.159-0.623,1.392-1.003,1.5c-1.164,0.331-0.151,1.606,0.041,2.293c0.157,0.557,0,1.598,0.198,2.038
		c0.208,0.459,0.965,0.732,1.203,1.3c0.228,0.547,0.206,2.737,0.946,2.888c0.683,0.14,0.473-2.721,0.516-3.071
		c0.074-0.605,1.612,0.138,0.983-1.343c-0.135-0.321-0.896-0.384-0.961-0.538c-0.225-0.537,0.354-1.202,0.17-1.797
		C234.934,158.904,233.807,157.121,233.115,156.525"/>
</g>
</svg>
