<svg xmlns="http://www.w3.org/2000/svg" width="114" height="105.91" viewBox="0 0 114 105.91"><title>logo</title><g id="Capa_2" data-name="Capa 2"><g id="Capa_1-2" data-name="Capa 1"><path d="M9.85,93.53H.67V77.38H5.15V89.49H10.3Zm9.19,0V92.3H19a3.89,3.89,0,0,1-3.31,1.57c-2.24,0-4.71-1.8-4.71-5.5s2.47-5.49,4.71-5.49A3.89,3.89,0,0,1,19,84.45H19V83.21h4V93.53Zm-1.79-7.29c-1.12,0-1.8.9-1.8,2.13s.68,2.13,1.8,2.13S19,89.61,19,88.37s-.67-2.13-1.79-2.13m20.82,1.68H35.61v5.61H31.13V77.38h6.5A5.29,5.29,0,0,1,43,82.65a5.17,5.17,0,0,1-4.93,5.27m-1.56-7h-.9v3.36h.9c1.34,0,2-.67,2-1.68s-.67-1.68-2-1.68m11,8.41a1.82,1.82,0,0,0,1.79,1.46,2.44,2.44,0,0,0,2-.9l3.13,1.57a6.27,6.27,0,0,1-5.15,2.36c-3.8,0-6-2.36-6-5.5s2.24-5.49,6-5.49c2.91,0,5.83,1.68,5.83,6.5Zm1.79-3.48a1.56,1.56,0,0,0-1.79,1.35h3.58a1.56,1.56,0,0,0-1.79-1.35M64.5,93.53V92.3h0a3.9,3.9,0,0,1-3.32,1.57c-2.24,0-4.7-1.8-4.7-5.5s2.46-5.49,4.7-5.49a3.9,3.9,0,0,1,3.32,1.57h0V77.16h4V93.53Zm-1.79-7.29c-1.12,0-1.79.9-1.79,2.13s.67,2.13,1.79,2.13,1.79-.89,1.79-2.13-.67-2.13-1.79-2.13m12.1,2.47v4.82h-4V83.21h4v1.24h0a3.75,3.75,0,0,1,3.54-1.57v4c-2.24-1.12-3.58.45-3.58,1.8m9,.67a1.83,1.83,0,0,0,1.8,1.46,2.44,2.44,0,0,0,2-.9l3.14,1.57a6.28,6.28,0,0,1-5.15,2.36c-3.81,0-6-2.36-6-5.5s2.24-5.49,6-5.49c2.91,0,5.82,1.68,5.82,6.5Zm1.8-3.48a1.58,1.58,0,0,0-1.8,1.35h3.59a1.57,1.57,0,0,0-1.79-1.35M97.2,88.71v4.82h-4V83.21h4v1.24h0a3.75,3.75,0,0,1,3.54-1.57v4c-2.24-1.12-3.59.45-3.59,1.8M110,93.53V92.3h0a3.89,3.89,0,0,1-3.31,1.57c-2.24,0-4.7-1.8-4.7-5.5s2.46-5.49,4.7-5.49a3.89,3.89,0,0,1,3.31,1.57h0V83.21h4V93.53Zm-1.79-7.29c-1.12,0-1.8.9-1.8,2.13s.68,2.13,1.8,2.13,1.79-.89,1.79-2.13-.67-2.13-1.79-2.13M8.51,59.8A8.24,8.24,0,0,1,0,51.27a8.24,8.24,0,0,1,8.51-8.52,7.82,7.82,0,0,1,5.6,2l-2.24,3.81a4,4,0,0,0-3.36-1.79c-2.24,0-4,1.79-4,4.48s1.79,4.49,4,4.49a4,4,0,0,0,3.36-2l2.46,3.59A7.06,7.06,0,0,1,8.51,59.8m14.67-.45V58.12h0a3.94,3.94,0,0,1-3.32,1.57c-2.24,0-4.7-1.8-4.7-5.5s2.46-5.5,4.7-5.5a3.92,3.92,0,0,1,3.32,1.57h0V49h4V59.35Zm-1.79-7.29c-1.12,0-1.79.9-1.79,2.13s.67,2.13,1.79,2.13,1.79-.9,1.79-2.13-.67-2.13-1.79-2.13M34,59.8c-2.24,0-3.58-.9-3.58-3.37v-4H28.67L29.12,49h1.34V46.34l4-.67V49h2v3.36h-2v2.47c0,1,.23,1.35.9,1.35a1.29,1.29,0,0,0,1.12-.56V58.9a4.2,4.2,0,0,1-2.47.9m12.21-.45V58.12h0a3.91,3.91,0,0,1-3.31,1.57c-2.24,0-4.7-1.8-4.7-5.5s2.46-5.5,4.7-5.5a3.89,3.89,0,0,1,3.31,1.57h0V49h4V59.35Zm-1.79-7.29c-1.12,0-1.79.9-1.79,2.13s.67,2.13,1.79,2.13,1.79-.9,1.79-2.13-.67-2.13-1.79-2.13M52.52,43h4V59.35h-4ZM65.4,59.35V58.12h-.05A3.89,3.89,0,0,1,62,59.69c-2.46,0-3.36-1.57-3.36-3.59V49h4v5.5c0,.89.34,1.57,1.35,1.57s1.34-.68,1.34-1.57V49h4V59.35Zm13,0v-5.5c0-.89-.34-1.57-1.34-1.57S75.7,53,75.7,53.85v5.5h-4V49h4v1.23h0a3.89,3.89,0,0,1,3.31-1.57c2.46,0,3.36,1.57,3.36,3.59v7.07Zm10.7,4.49h-4l1.84-5L83.2,49h4l1.5,4.71h0L90.37,49h4Zm13.6-4.49V58.12h0a3.91,3.91,0,0,1-3.31,1.57c-2.24,0-4.7-1.8-4.7-5.5s2.46-5.5,4.7-5.5a3.89,3.89,0,0,1,3.31,1.57h0V49h4V59.35Zm-1.79-7.29c-1.12,0-1.79.9-1.79,2.13s.67,2.13,1.79,2.13,1.79-.9,1.79-2.13-.67-2.13-1.79-2.13m-95.75-39v2h4.93v3.82H5.15v6.28H.67V9H10.3l.45,4ZM18.48,25.17V23.93h-.05a3.89,3.89,0,0,1-3.31,1.57c-2.47,0-3.36-1.57-3.36-3.59V14.85h4v5.49c0,.9.34,1.57,1.34,1.57s1.35-.67,1.35-1.57V14.85h4V25.17Zm13,0v-5.5c0-.9-.34-1.57-1.35-1.57s-1.34.67-1.34,1.57v5.5h-4V14.85h4v1.23h0a3.92,3.92,0,0,1,3.32-1.57c2.46,0,3.36,1.57,3.36,3.59v7.07Zm13.77,0V23.93h0a3.9,3.9,0,0,1-3.32,1.57c-2.24,0-4.7-1.79-4.7-5.49s2.46-5.5,4.7-5.5a3.9,3.9,0,0,1,3.32,1.57h0V8.79h4V25.17Zm-1.79-7.29c-1.12,0-1.79.89-1.79,2.13s.67,2.13,1.79,2.13,1.79-.9,1.79-2.13-.67-2.13-1.79-2.13m15.68,7.29V23.93h-.05a3.89,3.89,0,0,1-3.31,1.57c-2.24,0-4.71-1.79-4.71-5.49s2.47-5.5,4.71-5.5a3.89,3.89,0,0,1,3.31,1.57h.05V14.85h4V25.17Zm-1.79-7.29c-1.12,0-1.8.89-1.8,2.13s.68,2.13,1.8,2.13,1.79-.9,1.79-2.13-.67-2.13-1.79-2.13m15.18.8a2.64,2.64,0,0,0-1.75-.8A1.87,1.87,0,0,0,69,20a1.87,1.87,0,0,0,1.79,2.13,2.2,2.2,0,0,0,1.73-.81L74.72,24a5.54,5.54,0,0,1-4,1.5C67.19,25.5,65,23.13,65,20s2.24-5.5,5.82-5.5a5.57,5.57,0,0,1,4,1.46ZM76.19,9h4V12.6h-4Zm0,5.83h4V25.17h-4ZM88.07,25.5c-3.81,0-6-2.35-6-5.49s2.24-5.5,6-5.5,6,2.36,6,5.5-2.24,5.49-6,5.49m0-7.62c-1.13,0-1.8.67-1.8,2.13,0,1.25.67,2.13,1.8,2.13s1.79-.9,1.79-2.13c0-1.46-.68-2.13-1.79-2.13m1.11-5.28H86.27L87.84,9h4.48Z"/><rect x="0.22" width="113.78" height="3.36"/><rect x="0.22" y="34.18" width="113.78" height="3.36"/><rect x="0.22" y="68.36" width="113.78" height="3.36"/><rect x="0.22" y="102.55" width="113.78" height="3.36"/></g></g></svg>