<?xml version="1.0" encoding="UTF-8" standalone="no"?>
<svg
   id="Calque_1"
   version="1.1"
   viewBox="0 0 4210 2074.5376"
   width="4210"
   height="2074.5376"
   sodipodi:docname="g23.svg"
   inkscape:version="1.4.2 (ebf0e940, 2025-05-08)"
   xmlns:inkscape="http://www.inkscape.org/namespaces/inkscape"
   xmlns:sodipodi="http://sodipodi.sourceforge.net/DTD/sodipodi-0.dtd"
   xmlns="http://www.w3.org/2000/svg"
   xmlns:svg="http://www.w3.org/2000/svg">
  <sodipodi:namedview
     id="namedview1"
     pagecolor="#ffffff"
     bordercolor="#000000"
     borderopacity="0.25"
     inkscape:showpageshadow="2"
     inkscape:pageopacity="0.0"
     inkscape:pagecheckerboard="0"
     inkscape:deskcolor="#d1d1d1"
     inkscape:zoom="0.1517388"
     inkscape:cx="718.33965"
     inkscape:cy="1242.2663"
     inkscape:window-width="2560"
     inkscape:window-height="1440"
     inkscape:window-x="0"
     inkscape:window-y="0"
     inkscape:window-maximized="0"
     inkscape:current-layer="Calque_1" />
  <!-- Generator: Adobe Illustrator 30.0.0, SVG Export Plug-In . SVG Version: 2.1.1 Build 123)  -->
  <defs
     id="defs1">
    <style
       id="style1">
      .st0 {
        fill: #0f0db0;
      }
    </style>
  </defs>
  <g
     id="g23"
     transform="matrix(39.345794,0,0,39.345794,-849.86915,-64.413524)">
    <path
       class="st0"
       d="m 76.2,17.3 c 0.4,0.2 0.9,0.3 1.4,0.3 0.5,0 1,-0.1 1.4,-0.3 0.4,-0.2 0.7,-0.5 0.9,-0.9 0.2,-0.4 0.3,-0.8 0.3,-1.3 V 10.5 H 79.5 V 15 c 0,0.4 0,0.7 -0.2,1 -0.2,0.3 -0.4,0.5 -0.7,0.7 -0.3,0.2 -0.6,0.2 -1,0.2 -0.4,0 -0.7,0 -1,-0.2 C 76.3,16.5 76.1,16.3 75.9,16 75.7,15.7 75.7,15.4 75.7,15 V 10.5 H 75 v 4.6 c 0,0.5 0.1,0.9 0.3,1.3 0.2,0.4 0.5,0.7 0.9,0.9 z"
       id="path1"
       style="fill:#1e4697;fill-opacity:1" />
    <rect
       class="st0"
       x="89.199997"
       y="10.5"
       width="0.69999999"
       height="6.9000001"
       id="rect1"
       style="fill:#1e4697;fill-opacity:1" />
    <polygon
       class="st0"
       points="102.3,16.9 98.8,16.9 98.8,14.3 102,14.3 102,13.7 98.8,13.7 98.8,11.1 102.2,11.1 102.2,10.5 98.2,10.5 98.2,17.5 102.3,17.5 "
       id="polygon1"
       style="fill:#1e4697;fill-opacity:1" />
    <path
       class="st0"
       d="m 104.5,14.7 h 1.6 c 0,0 0.2,0 0.3,0 l 1.5,2.8 h 0.8 l -1.6,-2.9 c 0.1,0 0.2,0 0.3,-0.1 0.3,-0.2 0.6,-0.4 0.8,-0.7 0.2,-0.3 0.3,-0.7 0.3,-1.1 0,-0.4 0,-0.8 -0.3,-1.1 -0.2,-0.3 -0.4,-0.6 -0.8,-0.7 -0.3,-0.2 -0.7,-0.3 -1.2,-0.3 h -2.3 v 6.9 h 0.7 v -2.8 z m 0,-3.6 h 1.6 c 0.4,0 0.7,0 0.9,0.2 0.2,0.1 0.4,0.3 0.5,0.5 0.1,0.2 0.2,0.5 0.2,0.8 0,0.3 0,0.6 -0.2,0.8 -0.1,0.2 -0.3,0.4 -0.5,0.5 -0.2,0.1 -0.5,0.2 -0.9,0.2 h -1.6 z"
       id="path2"
       style="fill:#1e4697;fill-opacity:1" />
    <path
       class="st0"
       d="m 112.9,16.8 c -0.3,0.1 -0.6,0.2 -0.9,0.2 -0.3,0 -0.6,0 -0.8,-0.1 -0.3,0 -0.5,-0.2 -0.6,-0.4 -0.2,-0.2 -0.2,-0.4 -0.3,-0.7 h -0.7 c 0,0.4 0.1,0.7 0.3,1 0.2,0.3 0.5,0.5 0.8,0.7 0.4,0.2 0.8,0.2 1.2,0.2 0.4,0 0.9,0 1.3,-0.3 0.4,-0.2 0.6,-0.4 0.8,-0.7 0.2,-0.3 0.3,-0.6 0.3,-1 0,-0.4 0,-0.5 -0.2,-0.7 -0.1,-0.2 -0.3,-0.4 -0.4,-0.5 -0.2,-0.1 -0.4,-0.3 -0.6,-0.4 -0.2,0 -0.4,-0.2 -0.7,-0.2 l -0.7,-0.2 c -0.2,0 -0.4,-0.1 -0.6,-0.3 -0.2,-0.1 -0.4,-0.2 -0.5,-0.4 -0.1,-0.2 -0.2,-0.4 -0.2,-0.6 0,-0.2 0,-0.5 0.2,-0.7 0.2,-0.2 0.3,-0.3 0.6,-0.5 0.2,-0.1 0.5,-0.2 0.8,-0.2 0.5,0 0.8,0.1 1.1,0.3 0.3,0.2 0.5,0.5 0.5,0.9 h 0.6 c 0,-0.4 -0.1,-0.7 -0.3,-0.9 -0.2,-0.3 -0.5,-0.5 -0.8,-0.7 -0.3,-0.2 -0.7,-0.2 -1.2,-0.2 -0.5,0 -0.8,0 -1.2,0.2 -0.4,0.2 -0.6,0.4 -0.8,0.7 -0.2,0.3 -0.3,0.6 -0.3,1 0,0.4 0.1,0.8 0.4,1.1 0.3,0.3 0.7,0.5 1.3,0.7 l 0.8,0.2 c 0.3,0 0.5,0.2 0.8,0.3 0.2,0.1 0.4,0.2 0.5,0.4 0.1,0.2 0.2,0.4 0.2,0.6 0,0.2 0,0.5 -0.2,0.7 -0.2,0.2 -0.4,0.4 -0.6,0.5 z"
       id="path3"
       style="fill:#1e4697;fill-opacity:1" />
    <rect
       class="st0"
       x="115.9"
       y="10.5"
       width="0.69999999"
       height="6.9000001"
       id="rect3"
       style="fill:#1e4697;fill-opacity:1" />
    <polygon
       class="st0"
       points="120.2,17.5 120.9,17.5 120.9,11.1 123.1,11.1 123.1,10.5 118,10.5 118,11.1 120.2,11.1 "
       id="polygon3"
       style="fill:#1e4697;fill-opacity:1" />
    <polygon
       class="st0"
       points="125.2,14.3 128.3,14.3 128.3,13.7 125.2,13.7 125.2,11.1 128.6,11.1 128.6,10.5 124.5,10.5 124.5,17.5 128.6,17.5 128.6,16.9 125.2,16.9 "
       id="polygon4"
       style="fill:#1e4697;fill-opacity:1" />
    <polygon
       class="st0"
       points="127.7,8.5 126.9,8.5 126.3,9.8 126.8,9.8 "
       id="polygon5"
       style="fill:#1e4697;fill-opacity:1" />
    <path
       class="st0"
       d="M 82.3,20.5 80,27.4 h 1.8 l 0.5,-1.5 h 2.3 l 0.5,1.5 h 1.8 l -2.4,-6.9 z m 0.3,4.2 v -0.3 c 0.2,-0.5 0.4,-1 0.5,-1.6 0,-0.3 0.2,-0.7 0.2,-1 0,0.3 0.2,0.7 0.2,1 0.1,0.6 0.3,1.1 0.4,1.6 v 0.3 c 0,0 -1.4,0 -1.4,0 z"
       id="path5"
       style="fill:#1e4697;fill-opacity:1" />
    <path
       class="st0"
       d="m 89.3,25 h 0.9 l 1.3,2.4 h 1.8 l -1.4,-2.7 c 0,0 0,0 0,0 0.4,-0.2 0.7,-0.4 0.9,-0.8 0.2,-0.3 0.3,-0.7 0.3,-1.2 0,-0.5 -0.1,-0.9 -0.3,-1.2 -0.2,-0.3 -0.5,-0.6 -0.9,-0.8 -0.4,-0.2 -0.8,-0.3 -1.4,-0.3 h -2.8 v 6.9 h 1.6 v -2.4 z m 0,-3.2 h 0.8 c 0.3,0 0.5,0 0.6,0.1 0.2,0 0.3,0.2 0.4,0.3 0,0.1 0.1,0.3 0.1,0.5 0,0.2 0,0.4 -0.1,0.5 0,0.1 -0.2,0.2 -0.4,0.3 -0.2,0 -0.4,0.1 -0.6,0.1 h -0.9 v -1.9 z"
       id="path6"
       style="fill:#1e4697;fill-opacity:1" />
    <rect
       class="st0"
       x="94"
       y="20.5"
       width="1.6"
       height="6.9000001"
       id="rect6"
       style="fill:#1e4697;fill-opacity:1" />
    <path
       class="st0"
       d="m 97.2,23.8 c 0.3,0.3 0.8,0.5 1.4,0.7 l 0.7,0.2 c 0.3,0 0.5,0.1 0.6,0.2 0.2,0 0.3,0.2 0.4,0.2 0,0 0.1,0.2 0.1,0.3 0,0.1 0,0.3 -0.1,0.4 0,0.1 -0.2,0.2 -0.4,0.3 -0.2,0.1 -0.4,0 -0.6,0 -0.2,0 -0.5,0 -0.7,-0.1 C 98.4,25.9 98.3,25.8 98.2,25.7 98.1,25.5 98,25.4 98,25.1 h -1.6 c 0,0.5 0.1,1 0.4,1.3 0.3,0.3 0.6,0.6 1,0.8 0.4,0.2 0.9,0.3 1.5,0.3 0.6,0 1.1,0 1.5,-0.3 0.4,-0.2 0.7,-0.4 0.9,-0.7 0.2,-0.3 0.3,-0.7 0.3,-1.1 0,-0.4 0,-0.5 -0.1,-0.8 0,-0.2 -0.2,-0.4 -0.4,-0.6 -0.2,-0.2 -0.4,-0.3 -0.7,-0.4 -0.3,-0.1 -0.6,-0.2 -0.9,-0.3 h -0.6 c -0.2,-0.2 -0.4,-0.2 -0.5,-0.3 -0.2,0 -0.3,-0.1 -0.4,-0.2 0,0 -0.1,-0.2 -0.1,-0.4 0,-0.2 0,-0.2 0.1,-0.3 0.1,-0.1 0.2,-0.2 0.3,-0.2 0.1,0 0.3,0 0.6,0 0.3,0 0.6,0 0.8,0.2 0.2,0.1 0.3,0.3 0.3,0.6 h 1.6 c 0,-0.4 -0.1,-0.8 -0.3,-1.1 -0.2,-0.3 -0.5,-0.6 -0.9,-0.8 -0.4,-0.2 -0.9,-0.3 -1.4,-0.3 -0.5,0 -1,0 -1.4,0.3 -0.4,0.2 -0.7,0.4 -1,0.8 -0.3,0.4 -0.3,0.7 -0.3,1.1 0,0.4 0.2,0.9 0.5,1.2 z"
       id="path7"
       style="fill:#1e4697;fill-opacity:1" />
    <path
       class="st0"
       d="m 78.2,35.9 c -0.2,0 -0.4,0 -0.6,0 -0.2,0 -0.5,0 -0.7,-0.1 -0.2,0 -0.3,-0.2 -0.4,-0.3 -0.1,-0.2 -0.2,-0.3 -0.2,-0.6 h -1.6 c 0,0.5 0.1,1 0.4,1.3 0.2,0.4 0.6,0.6 1,0.8 0.4,0.2 0.9,0.3 1.5,0.3 0.6,0 1.1,0 1.5,-0.3 0.4,-0.2 0.7,-0.4 0.9,-0.7 0.2,-0.3 0.3,-0.7 0.3,-1.1 0,-0.4 0,-0.5 -0.1,-0.8 0,-0.2 -0.2,-0.4 -0.4,-0.6 -0.2,-0.2 -0.4,-0.3 -0.7,-0.4 -0.3,-0.1 -0.6,-0.2 -0.9,-0.3 h -0.6 c -0.2,-0.2 -0.4,-0.2 -0.5,-0.3 -0.2,0 -0.3,-0.1 -0.4,-0.2 0,0 -0.1,-0.2 -0.1,-0.4 0,-0.2 0,-0.2 0.1,-0.3 0.1,-0.1 0.2,-0.2 0.3,-0.2 0.1,0 0.3,0 0.6,0 0.3,0 0.6,0 0.8,0.2 0.2,0.2 0.3,0.3 0.3,0.6 h 1.6 c 0,-0.4 -0.1,-0.8 -0.3,-1.1 -0.2,-0.3 -0.5,-0.6 -0.9,-0.8 -0.4,-0.2 -0.9,-0.3 -1.4,-0.3 -0.5,0 -1,0 -1.4,0.3 -0.4,0.2 -0.7,0.4 -1,0.8 -0.2,0.3 -0.3,0.7 -0.3,1.1 0,0.4 0.2,0.9 0.5,1.2 0.3,0.3 0.8,0.5 1.4,0.7 l 0.7,0.2 c 0.3,0 0.5,0.1 0.6,0.2 0.1,0.1 0.3,0.2 0.4,0.2 0,0 0.1,0.2 0.1,0.3 0,0.1 0,0.3 -0.1,0.4 0,0.1 -0.2,0.2 -0.4,0.3 z"
       id="path8"
       style="fill:#1e4697;fill-opacity:1" />
    <path
       class="st0"
       d="m 85.6,37.2 c 0.4,-0.1 0.7,-0.3 0.9,-0.6 0.3,-0.2 0.5,-0.5 0.6,-0.8 0.1,-0.3 0.2,-0.6 0.3,-0.9 h -1.7 c 0,0.2 0,0.3 -0.2,0.5 0,0.1 -0.2,0.3 -0.3,0.3 -0.1,0 -0.3,0.2 -0.4,0.2 -0.2,0 -0.3,0 -0.5,0 -0.3,0 -0.6,0 -0.9,-0.2 -0.2,-0.2 -0.4,-0.4 -0.6,-0.7 -0.1,-0.3 -0.2,-0.7 -0.2,-1.2 0,-0.5 0,-0.8 0.2,-1.1 0.1,-0.3 0.3,-0.6 0.6,-0.7 0.2,-0.2 0.5,-0.3 0.9,-0.3 0.4,0 0.4,0 0.5,0 0.1,0 0.3,0.1 0.4,0.2 0.1,0 0.2,0.2 0.3,0.3 0,0.1 0.1,0.3 0.2,0.5 h 1.7 c 0,-0.4 -0.2,-0.8 -0.3,-1.1 -0.2,-0.3 -0.4,-0.6 -0.7,-0.8 -0.3,-0.2 -0.6,-0.4 -0.9,-0.5 -0.4,-0.1 -0.7,-0.2 -1.1,-0.2 -0.6,0 -1.2,0.1 -1.7,0.4 -0.5,0.3 -0.9,0.7 -1.2,1.2 -0.3,0.5 -0.4,1.2 -0.4,1.9 0,0.7 0.1,1.4 0.4,1.9 0.3,0.5 0.7,0.9 1.2,1.2 0.5,0.3 1.1,0.4 1.7,0.4 0.6,0 0.9,0 1.3,-0.2 z"
       id="path9"
       style="fill:#1e4697;fill-opacity:1" />
    <rect
       class="st0"
       x="88.300003"
       y="30.4"
       width="1.6"
       height="6.9000001"
       id="rect9"
       style="fill:#1e4697;fill-opacity:1" />
    <polygon
       class="st0"
       points="95.9,31.7 95.9,30.4 91,30.4 91,37.3 95.8,37.3 95.8,36 92.7,36 92.7,34.4 95.6,34.4 95.6,33.1 92.7,33.1 92.7,31.7 "
       id="polygon9"
       style="fill:#1e4697;fill-opacity:1" />
    <path
       class="st0"
       d="m 107.3,30.3 c -0.6,0 -1.2,0.1 -1.7,0.4 -0.5,0.3 -0.9,0.7 -1.2,1.2 -0.3,0.5 -0.4,1.2 -0.4,1.9 0,0.7 0.1,1.4 0.4,1.9 0.3,0.5 0.7,0.9 1.2,1.2 0.5,0.3 1.1,0.4 1.7,0.4 0.6,0 0.9,0 1.3,-0.2 0.4,-0.1 0.7,-0.3 0.9,-0.6 0.3,-0.2 0.5,-0.5 0.6,-0.8 0.1,-0.3 0.2,-0.6 0.3,-0.9 h -1.7 c 0,0.2 0,0.3 -0.2,0.5 0,0.1 -0.2,0.3 -0.3,0.3 -0.1,0 -0.3,0.2 -0.4,0.2 -0.2,0 -0.3,0 -0.5,0 -0.3,0 -0.6,0 -0.9,-0.2 -0.2,-0.2 -0.4,-0.4 -0.6,-0.7 -0.1,-0.3 -0.2,-0.7 -0.2,-1.2 0,-0.5 0,-0.8 0.2,-1.1 0.1,-0.3 0.3,-0.6 0.6,-0.7 0.2,-0.2 0.5,-0.3 0.9,-0.3 0.4,0 0.4,0 0.5,0 0.1,0 0.3,0.1 0.4,0.2 0.1,0 0.2,0.2 0.3,0.3 0,0.1 0.1,0.3 0.2,0.5 h 1.7 c 0,-0.4 -0.2,-0.8 -0.3,-1.1 -0.2,-0.3 -0.4,-0.6 -0.7,-0.8 -0.3,-0.2 -0.6,-0.4 -0.9,-0.5 -0.3,-0.1 -0.7,-0.2 -1.1,-0.2 z"
       id="path10"
       style="fill:#1e4697;fill-opacity:1" />
    <polygon
       class="st0"
       points="116.1,31.7 116.1,30.4 111.3,30.4 111.3,37.3 116.1,37.3 116.1,36 112.9,36 112.9,34.4 115.8,34.4 115.8,33.1 112.9,33.1 112.9,31.7 "
       id="polygon10"
       style="fill:#1e4697;fill-opacity:1" />
    <path
       class="st0"
       d="m 121.2,37.1 c 0.4,-0.2 0.7,-0.4 0.9,-0.7 0.2,-0.3 0.3,-0.7 0.3,-1.1 0,-0.4 0,-0.5 -0.1,-0.8 0,-0.2 -0.2,-0.4 -0.4,-0.6 -0.2,-0.2 -0.4,-0.3 -0.7,-0.4 -0.3,-0.1 -0.6,-0.2 -0.9,-0.3 h -0.6 c -0.2,-0.2 -0.4,-0.2 -0.5,-0.3 -0.2,0 -0.3,-0.1 -0.4,-0.2 0,0 -0.1,-0.2 -0.1,-0.4 0,-0.2 0,-0.2 0.1,-0.3 0,-0.1 0.2,-0.2 0.3,-0.2 0.1,0 0.3,0 0.6,0 0.3,0 0.6,0 0.8,0.2 0.2,0.2 0.3,0.3 0.3,0.6 h 1.6 c 0,-0.4 -0.1,-0.8 -0.3,-1.1 -0.2,-0.3 -0.5,-0.6 -0.9,-0.8 -0.4,-0.2 -0.9,-0.3 -1.4,-0.3 -0.5,0 -1,0 -1.4,0.3 -0.4,0.2 -0.7,0.4 -1,0.8 -0.2,0.3 -0.3,0.7 -0.3,1.1 0,0.4 0.2,0.9 0.5,1.2 0.3,0.3 0.8,0.5 1.4,0.7 l 0.7,0.2 c 0.3,0 0.5,0.1 0.6,0.2 0.1,0.1 0.3,0.2 0.4,0.2 0,0 0.1,0.2 0.1,0.3 0,0.1 0,0.3 -0.1,0.4 0,0.1 -0.2,0.2 -0.4,0.3 -0.2,0 -0.4,0 -0.6,0 -0.2,0 -0.5,0 -0.7,-0.1 -0.2,0 -0.3,-0.2 -0.4,-0.3 -0.1,-0.2 -0.2,-0.3 -0.2,-0.6 h -1.6 c 0,0.5 0.1,1 0.4,1.3 0.2,0.4 0.6,0.6 1,0.8 0.4,0.2 0.9,0.3 1.5,0.3 0.6,0 1.1,0 1.5,-0.3 z"
       id="path11"
       style="fill:#1e4697;fill-opacity:1" />
    <path
       class="st0"
       d="m 80,45.8 c 0.2,-0.3 0.3,-0.6 0.4,-0.9 0,-0.4 0.1,-0.7 0.1,-1.2 h -1.3 c 0,0.3 0,0.6 -0.2,0.9 0,0 0,0.2 -0.1,0.3 l -1,-1.2 0.4,-0.3 c 0.2,-0.1 0.4,-0.3 0.5,-0.5 0.1,-0.2 0.2,-0.3 0.3,-0.5 0,-0.2 0.1,-0.4 0.1,-0.6 0,-0.3 0,-0.6 -0.2,-0.9 -0.1,-0.3 -0.4,-0.5 -0.6,-0.6 -0.3,-0.2 -0.6,-0.2 -1,-0.2 -0.4,0 -0.7,0 -1,0.2 -0.3,0.2 -0.5,0.4 -0.7,0.7 -0.2,0.3 -0.2,0.6 -0.2,0.9 0,0.3 0,0.6 0.2,0.9 0.1,0.3 0.3,0.5 0.4,0.7 0,0 0,0 0,0 -0.2,0.2 -0.5,0.3 -0.7,0.5 -0.2,0.2 -0.3,0.4 -0.4,0.6 -0.1,0.2 -0.2,0.4 -0.2,0.7 0,0.3 0,0.7 0.3,1 0.2,0.3 0.5,0.5 0.8,0.7 0.4,0.2 0.8,0.3 1.3,0.3 0.5,0 0.6,0 0.9,-0.1 0.3,0 0.6,-0.2 0.8,-0.4 l 0.4,0.4 H 81 L 79.9,46 c 0,0 0,-0.1 0.1,-0.2 z m -3.2,-4.1 c 0,0 0.1,-0.2 0.2,-0.2 0,0 0.2,0 0.3,0 0.2,0 0.3,0 0.4,0.1 0,0 0.1,0.2 0.1,0.4 0,0.2 0,0.2 0,0.2 0,0 0,0.2 -0.2,0.2 0,0 -0.2,0.1 -0.3,0.2 L 77,42.8 c -0.1,-0.1 -0.2,-0.3 -0.3,-0.4 0,-0.1 -0.1,-0.3 -0.1,-0.4 0,-0.1 0,-0.2 0,-0.3 z m 1.1,4.2 c -0.2,0.1 -0.5,0.2 -0.7,0.2 -0.2,0 -0.3,0 -0.5,0 -0.1,0 -0.2,-0.1 -0.3,-0.3 0,-0.1 -0.1,-0.2 -0.1,-0.4 0,-0.2 0,-0.3 0.1,-0.4 0,-0.1 0.2,-0.2 0.3,-0.3 l 1.2,1.3 c 0,0 0,0 0,0 z"
       id="path12"
       style="fill:#1e4697;fill-opacity:1" />
    <polygon
       class="st0"
       points="84.5,40.3 82.9,40.3 82.9,47.2 87.4,47.2 87.4,45.9 84.5,45.9 "
       id="polygon12"
       style="fill:#1e4697;fill-opacity:1" />
    <polygon
       class="st0"
       points="88.3,47.2 93.1,47.2 93.1,45.9 89.9,45.9 89.9,44.4 92.8,44.4 92.8,43 89.9,43 89.9,41.6 93.1,41.6 93.1,40.3 88.3,40.3 "
       id="polygon13"
       style="fill:#1e4697;fill-opacity:1" />
    <polygon
       class="st0"
       points="93.9,41.6 95.9,41.6 95.9,47.2 97.5,47.2 97.5,41.6 99.5,41.6 99.5,40.3 93.9,40.3 "
       id="polygon14"
       style="fill:#1e4697;fill-opacity:1" />
    <polygon
       class="st0"
       points="100.1,41.6 102.2,41.6 102.2,47.2 103.8,47.2 103.8,41.6 105.8,41.6 105.8,40.3 100.1,40.3 "
       id="polygon15"
       style="fill:#1e4697;fill-opacity:1" />
    <path
       class="st0"
       d="m 110.8,44.6 c 0.4,-0.2 0.7,-0.4 0.9,-0.8 0.2,-0.4 0.3,-0.7 0.3,-1.2 0,-0.5 -0.1,-0.9 -0.3,-1.2 -0.2,-0.3 -0.5,-0.6 -0.9,-0.8 -0.4,-0.2 -0.8,-0.3 -1.4,-0.3 h -2.8 v 6.9 h 1.6 v -2.4 h 0.9 l 1.3,2.4 h 1.8 l -1.4,-2.7 c 0,0 0,0 0,0 z m -0.6,-1.5 c 0,0.1 -0.2,0.2 -0.4,0.3 -0.2,0 -0.4,0.1 -0.6,0.1 h -0.9 v -1.9 h 0.8 c 0.3,0 0.5,0 0.6,0.1 0.2,0 0.3,0.2 0.4,0.3 0,0.1 0.1,0.3 0.1,0.5 0,0.2 0,0.4 -0.1,0.5 z"
       id="path15"
       style="fill:#1e4697;fill-opacity:1" />
    <polygon
       class="st0"
       points="113.1,47.2 117.9,47.2 117.9,45.9 114.7,45.9 114.7,44.4 117.6,44.4 117.6,43 114.7,43 114.7,41.6 117.9,41.6 117.9,40.3 113.1,40.3 "
       id="polygon16"
       style="fill:#1e4697;fill-opacity:1" />
    <path
       class="st0"
       d="m 123.8,43.9 c -0.2,-0.2 -0.4,-0.3 -0.7,-0.4 -0.3,-0.1 -0.6,-0.2 -0.9,-0.3 h -0.6 c -0.2,-0.2 -0.4,-0.2 -0.5,-0.3 -0.2,0 -0.3,-0.1 -0.4,-0.2 0,0 -0.1,-0.2 -0.1,-0.4 0,-0.2 0,-0.2 0.1,-0.3 0,-0.1 0.2,-0.2 0.3,-0.2 0.1,0 0.3,0 0.6,0 0.3,0 0.6,0 0.8,0.2 0.2,0.2 0.3,0.3 0.3,0.6 h 1.6 c 0,-0.4 -0.1,-0.8 -0.3,-1.1 -0.2,-0.3 -0.5,-0.6 -0.9,-0.8 -0.4,-0.2 -0.9,-0.3 -1.4,-0.3 -0.5,0 -1,0 -1.4,0.3 -0.4,0.2 -0.7,0.4 -1,0.8 -0.2,0.3 -0.3,0.7 -0.3,1.1 0,0.4 0.2,0.9 0.5,1.2 0.3,0.3 0.8,0.5 1.4,0.7 l 0.7,0.2 c 0.3,0 0.5,0.1 0.6,0.2 0.1,0.1 0.3,0.2 0.4,0.2 0,0 0.1,0.2 0.1,0.3 0,0.1 0,0.3 -0.1,0.4 0,0.1 -0.2,0.2 -0.4,0.3 -0.2,0 -0.4,0 -0.6,0 -0.2,0 -0.5,0 -0.7,-0.1 -0.2,0 -0.3,-0.2 -0.4,-0.3 -0.1,-0.2 -0.2,-0.3 -0.2,-0.6 h -1.6 c 0,0.5 0.1,1 0.4,1.3 0.2,0.4 0.6,0.6 1,0.8 0.4,0.2 0.9,0.3 1.5,0.3 0.6,0 1.1,0 1.5,-0.3 0.4,-0.2 0.7,-0.4 0.9,-0.7 0.2,-0.3 0.3,-0.7 0.3,-1.1 0,-0.4 0,-0.5 -0.1,-0.8 0,-0.2 -0.2,-0.4 -0.4,-0.6 z"
       id="path16"
       style="fill:#1e4697;fill-opacity:1" />
    <path
       class="st0"
       d="m 76.5,25.2 h 1.2 c 0.5,0 1,0 1.4,-0.3 0.4,-0.2 0.7,-0.5 0.9,-0.8 0.2,-0.4 0.3,-0.8 0.3,-1.2 C 80.3,22.5 80.2,22 80,21.6 79.8,21.2 79.5,21 79.1,20.8 78.7,20.6 78.3,20.5 77.7,20.5 h -2.8 v 6.9 h 1.6 z m 0,-3.4 h 0.8 c 0.3,0 0.5,0 0.7,0.1 0.2,0 0.3,0.2 0.4,0.4 0,0.2 0.1,0.3 0.1,0.6 0,0.3 0,0.4 -0.1,0.6 0,0.2 -0.2,0.3 -0.4,0.4 -0.2,0 -0.4,0.1 -0.6,0.1 h -0.9 v -2.1 z"
       id="path17"
       style="fill:#1e4697;fill-opacity:1" />
    <path
       class="st0"
       d="m 99.1,33.7 c 0.1,0.2 0.3,0.5 0.4,0.8 l 1.8,2.9 h 1.8 v -6.9 h -1.7 v 3 c 0,0.2 0,0.4 0,0.7 0,0.3 0,0.6 0,0.9 0,0.1 0,0.2 0,0.3 0,-0.1 -0.1,-0.3 -0.2,-0.4 -0.1,-0.3 -0.2,-0.5 -0.4,-0.7 -0.1,-0.2 -0.2,-0.4 -0.4,-0.6 l -1.9,-3.1 h -1.8 v 6.9 h 1.7 v -2.9 c 0,-0.2 0,-0.4 0,-0.7 0,-0.3 0,-0.6 0,-0.9 0,-0.2 0,-0.3 0,-0.5 0,0.2 0.2,0.3 0.2,0.5 0.1,0.3 0.3,0.5 0.4,0.8 z"
       id="path18"
       style="fill:#1e4697;fill-opacity:1" />
    <path
       class="st0"
       d="m 82.6,13.1 c 0,-0.1 0,-0.3 0,-0.5 0,-0.2 0,-0.4 0,-0.7 0,-0.2 0,-0.4 0,-0.6 0.1,0.2 0.2,0.4 0.3,0.6 0.1,0.2 0.3,0.4 0.4,0.6 0.1,0.2 0.2,0.4 0.3,0.5 l 3,4.4 h 0.8 v -6.9 h -0.7 v 4.6 c 0,0.1 0,0.3 0,0.5 0,0.2 0,0.4 0,0.6 0,0.1 0,0.3 0,0.5 0,-0.1 -0.2,-0.3 -0.2,-0.4 -0.1,-0.2 -0.2,-0.4 -0.3,-0.6 -0.1,-0.2 -0.2,-0.3 -0.3,-0.5 l -3.2,-4.7 h -0.8 v 6.9 h 0.7 V 13 Z"
       id="path19"
       style="fill:#1e4697;fill-opacity:1" />
    <path
       class="st0"
       d="m 94.4,17.5 2.5,-6.9 h -0.7 l -1.6,4.5 c 0,0.2 -0.2,0.5 -0.3,0.9 0,0.3 -0.2,0.6 -0.3,1 -0.1,-0.4 -0.2,-0.7 -0.3,-1 -0.1,-0.3 -0.2,-0.6 -0.3,-0.9 L 91.7,10.6 H 91 l 2.6,6.9 z"
       id="path20"
       style="fill:#1e4697;fill-opacity:1" />
  </g>
  <g
     id="g22"
     transform="matrix(39.345794,0,0,39.345794,-849.86915,-321.62119)">
    <path
       class="st0"
       d="M 22.644075,8.1742204 H 21.6 V 41.584615 C 21.6,52.286383 30.300624,60.9 40.915385,60.9 51.530146,60.9 60.230769,52.199376 60.230769,41.584615 V 8.1742204 Z M 59.360707,41.497609 c 0,10.092724 -8.265593,18.358316 -18.358316,18.358316 -10.092724,0 -18.358316,-8.265592 -18.358316,-18.358316 V 9.131289 h 36.629626 v 32.36632 z"
       id="path21"
       style="fill:#1e4697;fill-opacity:1;stroke-width:0.870062" />
    <path
       class="st0"
       d="m 36.130042,37.843347 -4.437319,-2.697193 c -0.870062,0.957068 -1.392099,2.175156 -1.392099,3.393243 0,2.958212 2.871206,5.394387 6.786486,6.177443 0,3.132224 -1.827131,4.002287 -1.827131,4.002287 v 0.174012 c 0,0 15.574117,0 15.574117,0 l 0.69605,-4.002287 h -0.174013 c -1.914137,2.262163 -4.959355,3.48025 -8.613617,3.741269 V 44.71684 c 3.91528,-0.783056 6.69948,-3.306237 6.786486,-6.177443 0,-2.523181 -1.653118,-4.176299 -3.306237,-5.220374 -0.870062,-0.609044 -2.436175,-1.479106 -3.480249,-2.175156 v -2.523181 h 3.480249 c 3.045218,0 5.481393,-2.610187 5.481393,-5.742412 0,-3.132224 -2.349168,-5.742411 -5.481393,-5.742411 H 35.259979 v 0.174012 c 0,0 1.827131,0.957069 1.827131,4.1763 v 0 c -0.522037,0 -1.914137,0 -3.567256,0.783056 -0.870062,0.435031 -1.653118,1.131081 -2.262162,2.001143 0,0 0,0.08701 -0.08701,0.174013 -1.653118,2.697193 -0.870062,6.177443 1.914137,8.004573 2.523181,1.653119 9.744699,6.003431 11.223805,6.873493 v 0 c 0.957068,0.609044 1.566112,1.3921 1.566112,2.349169 0,1.305093 -1.305093,2.436174 -3.132224,2.958212 V 39.844491 L 37.08711,36.451247 v 8.178587 c -1.914137,-0.522038 -3.132224,-1.653119 -3.219231,-2.958212 0,-1.566113 1.131081,-2.7842 2.175156,-3.654262 z m 6.612474,-20.446466 c 2.697193,0 3.828274,2.436175 3.828274,5.481393 0,3.045219 -1.131081,5.481393 -3.828274,5.481393 z M 37.08711,27.750624 c -1.131081,-0.69605 -1.827131,-1.131081 -1.827131,-1.131081 -1.218087,-0.783057 -1.653118,-2.436175 -0.870062,-3.654262 0.522037,-0.870063 1.3921,-1.305094 2.697193,-1.305094 v 6.00343 z"
       id="path22"
       style="fill:#1e4697;fill-opacity:1;stroke-width:0.870062" />
  </g>
</svg>
