<?xml version="1.0" encoding="UTF-8" standalone="no"?>
<!-- Created with Inkscape (http://www.inkscape.org/) -->

<svg
   version="1.1"
   id="svg1945"
   width="4349.6201"
   height="2352.9966"
   viewBox="0 0 4349.6201 2352.9966"
   xmlns="http://www.w3.org/2000/svg"
   xmlns:svg="http://www.w3.org/2000/svg">
  <defs
     id="defs1949" />
  <g
     id="g1953"
     transform="matrix(1.3333333,0,0,-1.3333333,-72.270422,22.898609)">
    <g
       id="g1955"
       transform="matrix(4.6768651,0,0,4.6768651,-4589.955,-1726.9794)">
      <g
         id="g6">
        <path
           d="m 1262.712,134.03338 c 0,-72.380756 -58.8912,-131.2686639 -131.2727,-131.2686639 -72.3814,0 -131.2726,58.8879079 -131.2726,131.2686639 v 231.73063 h 262.5453 z m 0,238.89877 H 993.00658 V 134.03338 c 0,-76.333935 62.09122,-138.4367772 138.43272,-138.4367772 76.3316,0 138.4428,62.1028422 138.4428,138.4367772 v 231.73063 7.16814 h -7.1701"
           style="opacity:1;fill:#2f4485;fill-opacity:1;fill-rule:nonzero;stroke:none;stroke-width:1.00002"
           id="path1975" />
        <path
           d="m 1103.3621,273.47343 v -43.743 c -8.001,4.77855 -13.293,7.92015 -13.293,7.92015 -9.135,5.56185 -12.0855,17.3943 -6.5205,26.52825 3.6645,6.02175 10.0905,9.2946 19.8135,9.2946 z m 40.8135,31.8612 c 19.614,-0.1113 27.8985,-17.65365 27.8985,-39.85485 0,-22.20225 -8.2845,-39.7446 -27.8985,-39.85485 z m 25.347,-116.0502 c -6.573,4.1097 -17.493,10.99665 -25.347,15.8319 v 18.53985 h 25.053 c 22.4175,0 39.7425,18.7236 39.7425,41.8236 0,23.0958 -17.325,41.83935 -39.7425,41.83935 h -79.359 v -1.4679 c 0,0 13.4925,-6.70635 13.4925,-30.40065 v 0 c -3.738,0 -13.8495,0.5082 -26.0295,-5.5167 -6.4995,-3.2193 -12.243,-8.1501 -16.4745,-14.6139 -0.2625,-0.39375 -0.5145,-0.7959 -0.7665,-1.2054 -12.075,-19.85655 -6.0165,-44.8959 14.0805,-57.83295 18.396,-11.84505 70.9275,-43.3734 81.2805,-49.5831 v -0.008 c 7.1925,-4.2693 11.6655,-10.26585 11.6655,-16.9071 0,-9.64635 -9.4395,-17.9361 -22.9425,-21.54495 v 34.44525 l -40.8135,24.69915 v -59.21475 c -13.6395,3.57315 -22.953,11.907 -23.2155,21.6153 -0.294,11.2959 8.043,20.4099 16.065,26.57445 l -31.962,19.65075 c -6.5625,-7.1778 -10.353,-15.63975 -10.353,-24.7002 0,-21.2541 20.8425,-39.21435 49.4655,-45.0555 0,-22.546129 -13.4925,-29.067574 -13.4925,-29.067574 v -1.46832 h 113.232 l 4.851,29.174044 -1.47,0.004 c 0,-0.004 0,-0.004 0,-0.004 -13.9335,-16.311544 -36.0255,-24.978139 -62.307,-26.992039 v 28.411639 c 28.476,5.89365 48.762,23.814 49.1925,44.99775 0.3675,18.09255 -11.8125,30.45 -23.8455,37.9764"
           style="opacity:1;fill:#2f4485;fill-opacity:1;fill-rule:nonzero;stroke:none;stroke-width:1.05"
           id="path1977" />
      </g>
    </g>
    <g
       id="g7"
       transform="matrix(41.100831,0,0,41.100831,-3836.7855,-1572.9159)">
      <g
         id="g9"
         transform="matrix(1.014242,0,0,1.014242,-3.732333,-0.03782729)">
        <g
           id="g10"
           transform="matrix(1.0142143,0,0,1.0142143,-1.9089858,-0.70401549)">
          <g
             id="g11"
             transform="matrix(0.99427471,0,0,0.99427471,2.6300033,0.03742288)">
            <g
               id="g5"
               transform="matrix(0.1,0,0,0.1,2.49285e-6,-3.0000003)">
              <path
                 d="m 1698.45,105.656 c -0.68,1.641 -1.68,3.086 -3,4.348 -1.32,1.258 -2.94,2.344 -4.87,3.262 -1.94,0.906 -4.16,1.64 -6.68,2.187 l -4.38,0.996 c -1.15,0.242 -2.19,0.535 -3.12,0.867 -0.93,0.332 -1.72,0.715 -2.37,1.153 -0.66,0.441 -1.16,0.949 -1.5,1.535 -0.34,0.574 -0.5,1.25 -0.46,2.012 0.01,0.925 0.29,1.746 0.82,2.468 0.53,0.723 1.33,1.289 2.39,1.7 1.06,0.421 2.39,0.625 3.97,0.625 2.4,0 4.26,-0.508 5.56,-1.532 1.31,-1.015 2.04,-2.433 2.2,-4.257 h 11.78 c -0.03,3.164 -0.85,5.945 -2.46,8.347 -1.6,2.403 -3.87,4.278 -6.77,5.606 -2.91,1.34 -6.34,2.004 -10.28,2.004 -3.86,0 -7.31,-0.664 -10.31,-1.993 -3.02,-1.32 -5.38,-3.175 -7.09,-5.539 -1.71,-2.371 -2.55,-5.125 -2.53,-8.281 -0.02,-3.855 1.24,-6.922 3.77,-9.18 2.54,-2.265 6.01,-3.906 10.42,-4.91 l 5.32,-1.242 c 1.85,-0.43 3.38,-0.898 4.58,-1.406 1.2,-0.508 2.1,-1.102 2.68,-1.785 0.57,-0.696 0.87,-1.516 0.89,-2.481 -0.02,-1.0272 -0.34,-1.9334 -0.97,-2.7342 -0.63,-0.793 -1.53,-1.418 -2.7,-1.8672 -1.16,-0.4375 -2.58,-0.6641 -4.24,-0.6641 -1.8,0 -3.39,0.2735 -4.75,0.8399 -1.37,0.5664 -2.44,1.3984 -3.22,2.4922 -0.79,1.0937 -1.23,2.4614 -1.32,4.1014 h -11.78 c 0.05,-3.9842 0.95,-7.2655 2.7,-9.8749 1.76,-2.5976 4.22,-4.539 7.39,-5.8086 3.16,-1.2812 6.87,-1.914 11.13,-1.914 4.25,0 7.87,0.6054 10.88,1.8359 3.01,1.2188 5.31,2.9883 6.92,5.293 1.61,2.3047 2.42,5.0664 2.43,8.2816 -0.01,2.031 -0.36,3.875 -1.03,5.515"
                 style="opacity:1;fill:#2f4485;fill-opacity:1;fill-rule:nonzero;stroke:none"
                 id="path1979" />
              <path
                 d="m 1618.04,85.375 h 35.5 v 9.9883 h -23.2 v 10.4687 h 21.38 v 10.012 h -21.38 v 10.449 h 23.2 v 9.988 h -35.5 V 85.375"
                 style="opacity:1;fill:#2f4485;fill-opacity:1;fill-rule:nonzero;stroke:none"
                 id="path1981" />
              <path
                 d="m 1585.75,126.359 h 6.07 c 1.84,0 3.39,-0.261 4.65,-0.781 1.26,-0.515 2.21,-1.297 2.86,-2.332 0.64,-1.035 0.96,-2.344 0.96,-3.918 0,-1.57 -0.32,-2.859 -0.96,-3.867 -0.65,-1.004 -1.59,-1.746 -2.84,-2.234 -1.25,-0.489 -2.82,-0.735 -4.67,-0.735 h -6.07 z m 24.98,-16.015 c 1.55,2.461 2.32,5.449 2.32,8.984 0,3.477 -0.75,6.496 -2.26,9.035 -1.51,2.547 -3.65,4.5 -6.42,5.867 -2.79,1.368 -6.08,2.051 -9.89,2.051 h -21.03 V 85.375 h 12.3 v 17.422 h 6.31 l 9.31,-17.422 h 13.42 l -10.56,19.379 c 2.81,1.289 4.98,3.148 6.5,5.59"
                 style="opacity:1;fill:#2f4485;fill-opacity:1;fill-rule:nonzero;stroke:none"
                 id="path1983" />
              <path
                 d="m 1526.13,126.293 h 15.46 V 85.375 h 12.13 v 40.918 h 15.44 v 9.988 h -43.03 v -9.988"
                 style="opacity:1;fill:#2f4485;fill-opacity:1;fill-rule:nonzero;stroke:none"
                 id="path1985" />
              <path
                 d="m 1480.48,126.293 h 15.46 V 85.375 h 12.13 v 40.918 h 15.44 v 9.988 h -43.03 v -9.988"
                 style="opacity:1;fill:#2f4485;fill-opacity:1;fill-rule:nonzero;stroke:none"
                 id="path1987" />
              <path
                 d="m 1440.7,85.375 h 35.49 v 9.9883 H 1453 v 10.4687 h 21.38 v 10.012 H 1453 v 10.449 h 23.19 v 9.988 H 1440.7 V 85.375"
                 style="opacity:1;fill:#2f4485;fill-opacity:1;fill-rule:nonzero;stroke:none"
                 id="path1989" />
              <path
                 d="m 1414.9,136.281 h -12.3 V 85.375 h 33.49 v 9.9883 h -21.19 v 40.9177"
                 style="opacity:1;fill:#2f4485;fill-opacity:1;fill-rule:nonzero;stroke:none"
                 id="path1991" />
              <path
                 d="m 1364.64,95.4531 c -1.72,-0.8203 -3.45,-1.2304 -5.17,-1.2304 -1.28,0 -2.42,0.2343 -3.37,0.6914 -0.97,0.4687 -1.71,1.1054 -2.23,1.914 -0.52,0.8125 -0.78,1.7696 -0.78,2.8633 0,1.0626 0.31,2.0386 0.95,2.9496 0.58,0.836 1.42,1.625 2.43,2.367 l 8.55,-9.2775 c -0.14,-0.0703 -0.24,-0.211 -0.38,-0.2774 z m -8.07,29.8629 c 0.37,0.614 0.86,1.102 1.51,1.465 0.65,0.371 1.41,0.547 2.29,0.547 1.37,0.02 2.42,-0.344 3.12,-1.094 0.7,-0.742 1.05,-1.574 1.05,-2.48 0,-0.852 -0.25,-1.691 -0.75,-2.539 -0.51,-0.84 -1.37,-1.652 -2.58,-2.414 l -2.34,-1.496 c -0.76,0.972 -1.47,1.937 -1.95,2.816 -0.59,1.063 -0.87,2.098 -0.87,3.106 0,0.781 0.17,1.472 0.52,2.089 z m 23.45,-29.7379 c 1.28,2.0625 2.25,4.3946 2.89,7.0039 0.66,2.617 0.98,5.438 0.98,8.496 h -9.8 c 0,-2.473 -0.43,-4.738 -1.3,-6.797 -0.28,-0.676 -0.77,-1.133 -1.11,-1.746 l -7.29,8.192 2.71,1.941 c 2.16,1.535 3.83,3.312 5,5.305 1.18,2 1.77,4.187 1.77,6.57 0,2.258 -0.55,4.328 -1.64,6.223 -1.1,1.882 -2.66,3.398 -4.68,4.55 -2.02,1.141 -4.42,1.707 -7.21,1.707 -2.88,0 -5.41,-0.605 -7.56,-1.824 -2.16,-1.222 -3.84,-2.851 -5.03,-4.914 -1.21,-2.051 -1.8,-4.344 -1.8,-6.883 0,-2.257 0.44,-4.336 1.32,-6.25 0.87,-1.894 1.94,-3.632 3.2,-5.234 -1.8,-1.207 -3.38,-2.438 -4.73,-3.691 -1.36,-1.27 -2.44,-2.649 -3.21,-4.153 -0.77,-1.492 -1.15,-3.222 -1.15,-5.1834 0,-2.6484 0.69,-5.0586 2.09,-7.2187 1.39,-2.1563 3.38,-3.8867 5.98,-5.1563 2.58,-1.2773 5.68,-1.914 9.25,-1.914 2.21,0 4.45,0.3047 6.73,0.9179 2.24,0.6055 4.33,1.6016 6.25,2.9805 l 2.88,-3.125 h 12.39 l -8.03,9.0195 c 0.33,0.4375 0.8,0.7071 1.1,1.1836"
                 style="opacity:1;fill:#2f4485;fill-opacity:1;fill-rule:nonzero;stroke:none"
                 id="path1993" />
            </g>
            <g
               id="g4"
               transform="matrix(0.1,0,0,0.1,2.49285e-6,-4.5995726)">
              <path
                 d="m 1680.03,170.559 c 3.01,1.23 5.31,3 6.92,5.304 1.61,2.297 2.42,5.063 2.44,8.278 -0.02,2.035 -0.36,3.875 -1.05,5.515 -0.68,1.641 -1.68,3.09 -3,4.352 -1.31,1.258 -2.94,2.344 -4.87,3.258 -1.92,0.91 -4.15,1.636 -6.67,2.183 l -4.37,0.996 c -1.17,0.25 -2.21,0.539 -3.14,0.871 -0.93,0.332 -1.72,0.719 -2.37,1.157 -0.66,0.433 -1.15,0.949 -1.5,1.531 -0.33,0.574 -0.48,1.25 -0.46,2.012 0.02,0.925 0.3,1.75 0.83,2.472 0.53,0.719 1.32,1.285 2.39,1.7 1.05,0.417 2.38,0.625 3.97,0.625 2.4,0 4.26,-0.512 5.56,-1.532 1.3,-1.015 2.03,-2.437 2.2,-4.261 h 11.78 c -0.04,3.168 -0.86,5.949 -2.46,8.351 -1.61,2.402 -3.86,4.274 -6.77,5.606 -2.92,1.336 -6.34,2.003 -10.29,2.003 -3.86,0 -7.29,-0.664 -10.31,-1.992 -3.02,-1.324 -5.38,-3.175 -7.08,-5.543 -1.71,-2.367 -2.56,-5.125 -2.54,-8.277 -0.02,-3.859 1.24,-6.922 3.78,-9.184 2.54,-2.261 6.01,-3.902 10.41,-4.914 l 5.32,-1.238 c 1.86,-0.43 3.39,-0.898 4.59,-1.406 1.2,-0.504 2.09,-1.106 2.67,-1.785 0.58,-0.692 0.88,-1.516 0.9,-2.477 -0.02,-1.027 -0.35,-1.937 -0.97,-2.734 -0.64,-0.797 -1.53,-1.418 -2.7,-1.867 -1.17,-0.446 -2.58,-0.668 -4.23,-0.668 -1.81,0 -3.4,0.277 -4.77,0.843 -1.37,0.563 -2.44,1.395 -3.21,2.489 -0.78,1.093 -1.22,2.461 -1.32,4.097 h -11.79 c 0.05,-3.976 0.96,-7.261 2.72,-9.867 1.74,-2.605 4.21,-4.539 7.38,-5.82 3.16,-1.278 6.87,-1.914 11.13,-1.914 4.24,0 7.87,0.617 10.88,1.836"
                 style="opacity:1;fill:#2f4485;fill-opacity:1;fill-rule:nonzero;stroke:none"
                 id="path1995" />
              <path
                 d="m 1642.17,179.367 h -23.19 v 10.465 h 21.37 v 10.016 h -21.37 v 10.441 h 23.19 v 9.992 h -35.5 v -50.914 h 35.5 v 10"
                 style="opacity:1;fill:#2f4485;fill-opacity:1;fill-rule:nonzero;stroke:none"
                 id="path1997" />
              <path
                 d="m 1565.17,171.723 c 3.64,-2.032 7.76,-3.047 12.36,-3.047 3.5,0 6.6,0.527 9.32,1.59 2.7,1.054 5.01,2.492 6.89,4.289 1.9,1.8 3.38,3.793 4.47,5.98 1.08,2.188 1.73,4.41 1.95,6.66 l -12.43,0.075 c -0.22,-1.227 -0.6,-2.325 -1.16,-3.293 -0.55,-0.969 -1.26,-1.789 -2.11,-2.461 -0.85,-0.672 -1.84,-1.18 -2.96,-1.528 -1.12,-0.347 -2.36,-0.523 -3.71,-0.523 -2.43,0 -4.52,0.578 -6.28,1.73 -1.77,1.153 -3.14,2.868 -4.11,5.145 -0.96,2.277 -1.45,5.109 -1.45,8.488 0,3.246 0.48,6.016 1.43,8.301 0.95,2.289 2.32,4.035 4.11,5.25 1.77,1.203 3.9,1.809 6.37,1.809 1.39,0 2.66,-0.196 3.81,-0.579 1.15,-0.39 2.15,-0.953 3,-1.679 0.85,-0.731 1.52,-1.61 2.04,-2.641 0.51,-1.023 0.85,-2.176 1.02,-3.449 h 12.43 c -0.3,3.047 -1.08,5.758 -2.32,8.125 -1.24,2.371 -2.86,4.375 -4.84,6.004 -1.99,1.633 -4.3,2.879 -6.91,3.73 -2.62,0.852 -5.47,1.281 -8.56,1.281 -4.52,0 -8.6,-1.011 -12.24,-3.035 -3.66,-2.019 -6.55,-4.976 -8.69,-8.875 -2.14,-3.89 -3.2,-8.64 -3.2,-14.242 0,-5.586 1.06,-10.324 3.15,-14.219 2.11,-3.898 4.99,-6.855 8.62,-8.886"
                 style="opacity:1;fill:#2f4485;fill-opacity:1;fill-rule:nonzero;stroke:none"
                 id="path1999" />
              <path
                 d="m 1515.71,198.754 h 0.32 l 20.26,-29.387 h 10.44 v 50.914 h -12.27 v -29.332 h -0.43 L 1514,220.281 h -10.6 v -50.914 h 12.31 v 29.387"
                 style="opacity:1;fill:#2f4485;fill-opacity:1;fill-rule:nonzero;stroke:none"
                 id="path2001" />
              <path
                 d="m 1496.18,210.289 v 9.992 h -35.49 v -50.914 h 35.49 v 10 h -23.19 v 10.465 h 21.38 v 10.016 h -21.38 v 10.441 h 23.19"
                 style="opacity:1;fill:#2f4485;fill-opacity:1;fill-rule:nonzero;stroke:none"
                 id="path2003" />
              <path
                 d="m 1441.17,169.367 h 12.31 v 50.914 h -12.31 v -50.914"
                 style="opacity:1;fill:#2f4485;fill-opacity:1;fill-rule:nonzero;stroke:none"
                 id="path2005" />
              <path
                 d="m 1421.34,170.266 c 2.71,1.054 5.01,2.492 6.9,4.289 1.89,1.8 3.37,3.793 4.46,5.98 1.09,2.188 1.74,4.41 1.95,6.66 l -12.42,0.075 c -0.23,-1.227 -0.61,-2.325 -1.16,-3.293 -0.56,-0.969 -1.26,-1.789 -2.11,-2.461 -0.86,-0.672 -1.85,-1.18 -2.96,-1.528 -1.12,-0.347 -2.36,-0.523 -3.72,-0.523 -2.41,0 -4.51,0.578 -6.27,1.73 -1.77,1.153 -3.14,2.868 -4.1,5.145 -0.98,2.277 -1.46,5.109 -1.46,8.488 0,3.246 0.48,6.016 1.43,8.301 0.95,2.289 2.32,4.035 4.1,5.25 1.79,1.203 3.9,1.809 6.38,1.809 1.39,0 2.66,-0.196 3.81,-0.579 1.16,-0.39 2.15,-0.953 2.99,-1.679 0.85,-0.731 1.54,-1.61 2.04,-2.641 0.52,-1.023 0.86,-2.176 1.03,-3.449 h 12.42 c -0.29,3.047 -1.06,5.758 -2.3,8.125 -1.25,2.371 -2.87,4.375 -4.86,6.004 -1.98,1.633 -4.28,2.879 -6.9,3.73 -2.63,0.852 -5.47,1.281 -8.56,1.281 -4.52,0 -8.61,-1.011 -12.25,-3.035 -3.65,-2.019 -6.54,-4.976 -8.67,-8.875 -2.14,-3.89 -3.22,-8.64 -3.22,-14.242 0,-5.586 1.06,-10.324 3.17,-14.219 2.1,-3.898 4.97,-6.855 8.61,-8.886 3.63,-2.032 7.75,-3.047 12.36,-3.047 3.5,0 6.6,0.527 9.31,1.59"
                 style="opacity:1;fill:#2f4485;fill-opacity:1;fill-rule:nonzero;stroke:none"
                 id="path2007" />
              <path
                 d="m 1366.54,179.563 c -1.16,-0.446 -2.57,-0.668 -4.23,-0.668 -1.81,0 -3.39,0.277 -4.76,0.843 -1.37,0.563 -2.44,1.395 -3.22,2.489 -0.78,1.093 -1.22,2.461 -1.32,4.097 h -11.78 c 0.05,-3.976 0.95,-7.261 2.71,-9.867 1.76,-2.605 4.22,-4.539 7.38,-5.82 3.16,-1.278 6.88,-1.914 11.13,-1.914 4.25,0 7.87,0.617 10.88,1.836 3.01,1.23 5.31,3 6.93,5.304 1.61,2.297 2.42,5.063 2.43,8.278 -0.01,2.035 -0.36,3.875 -1.04,5.515 -0.68,1.641 -1.68,3.09 -3,4.352 -1.31,1.258 -2.94,2.344 -4.87,3.258 -1.93,0.91 -4.16,1.636 -6.68,2.183 l -4.37,0.996 c -1.16,0.25 -2.2,0.539 -3.13,0.871 -0.93,0.332 -1.72,0.719 -2.37,1.157 -0.66,0.433 -1.15,0.949 -1.5,1.531 -0.34,0.574 -0.49,1.25 -0.45,2.012 0.01,0.925 0.28,1.75 0.82,2.472 0.52,0.719 1.32,1.285 2.38,1.7 1.06,0.417 2.39,0.625 3.97,0.625 2.41,0 4.26,-0.512 5.56,-1.532 1.31,-1.015 2.04,-2.437 2.21,-4.261 h 11.77 c -0.03,3.168 -0.85,5.949 -2.46,8.351 -1.6,2.402 -3.86,4.274 -6.76,5.606 -2.91,1.336 -6.34,2.003 -10.29,2.003 -3.85,0 -7.3,-0.664 -10.31,-1.992 -3.02,-1.324 -5.38,-3.175 -7.09,-5.543 -1.71,-2.367 -2.55,-5.125 -2.53,-8.277 -0.02,-3.859 1.24,-6.922 3.77,-9.184 2.54,-2.261 6.02,-3.902 10.42,-4.914 l 5.32,-1.238 c 1.86,-0.43 3.38,-0.898 4.58,-1.406 1.2,-0.504 2.1,-1.106 2.68,-1.785 0.57,-0.692 0.88,-1.516 0.9,-2.477 -0.02,-1.027 -0.34,-1.937 -0.98,-2.734 -0.62,-0.797 -1.52,-1.418 -2.7,-1.867"
                 style="opacity:1;fill:#2f4485;fill-opacity:1;fill-rule:nonzero;stroke:none"
                 id="path2009" />
            </g>
            <g
               id="g3"
               transform="matrix(0.1,0,0,0.1,2.49285e-6,-6.2057449)">
              <path
                 d="m 1531.06,263.672 c -1.18,-0.449 -2.61,-0.676 -4.29,-0.676 -1.83,0 -3.44,0.281 -4.82,0.856 -1.38,0.566 -2.47,1.41 -3.26,2.515 -0.79,1.11 -1.24,2.492 -1.34,4.153 h -11.92 c 0.05,-4.028 0.96,-7.356 2.74,-9.993 1.78,-2.636 4.27,-4.597 7.47,-5.886 3.21,-1.297 6.96,-1.942 11.27,-1.942 4.31,0 7.97,0.621 11.02,1.86 3.05,1.242 5.38,3.031 7.01,5.367 1.63,2.328 2.45,5.125 2.46,8.379 -0.01,2.062 -0.36,3.925 -1.04,5.586 -0.7,1.664 -1.71,3.132 -3.04,4.406 -1.34,1.277 -2.98,2.375 -4.93,3.297 -1.96,0.926 -4.22,1.664 -6.77,2.219 l -4.43,1.007 c -1.17,0.25 -2.22,0.543 -3.16,0.879 -0.94,0.336 -1.74,0.727 -2.41,1.172 -0.66,0.442 -1.16,0.961 -1.51,1.547 -0.35,0.586 -0.5,1.266 -0.46,2.039 0.01,0.938 0.28,1.773 0.83,2.504 0.53,0.73 1.34,1.301 2.41,1.723 1.08,0.421 2.42,0.632 4.02,0.632 2.44,0 4.32,-0.519 5.63,-1.55 1.33,-1.032 2.07,-2.469 2.24,-4.321 h 11.92 c -0.03,3.211 -0.86,6.028 -2.49,8.461 -1.62,2.434 -3.92,4.328 -6.85,5.676 -2.95,1.352 -6.42,2.027 -10.42,2.027 -3.9,0 -7.39,-0.671 -10.44,-2.015 -3.05,-1.34 -5.45,-3.215 -7.18,-5.614 -1.73,-2.398 -2.58,-5.191 -2.56,-8.378 -0.02,-3.911 1.26,-7.012 3.82,-9.301 2.57,-2.289 6.09,-3.949 10.55,-4.977 l 5.39,-1.254 c 1.88,-0.433 3.42,-0.91 4.64,-1.425 1.21,-0.508 2.12,-1.118 2.71,-1.809 0.58,-0.695 0.89,-1.531 0.91,-2.508 -0.02,-1.035 -0.35,-1.961 -0.99,-2.765 -0.64,-0.809 -1.55,-1.434 -2.73,-1.891"
                 style="opacity:1;fill:#2f4485;fill-opacity:1;fill-rule:nonzero;stroke:none"
                 id="path2011" />
              <path
                 d="M 1498.46,305.859 H 1486 v -52.504 h 12.46 v 52.504"
                 style="opacity:1;fill:#2f4485;fill-opacity:1;fill-rule:nonzero;stroke:none"
                 id="path2013" />
              <path
                 d="m 1455.94,295.629 c 1.86,0 3.43,-0.27 4.71,-0.805 1.28,-0.539 2.23,-1.344 2.9,-2.41 0.65,-1.07 0.98,-2.414 0.98,-4.039 0,-1.625 -0.33,-2.953 -0.98,-3.984 -0.67,-1.039 -1.62,-1.809 -2.89,-2.313 -1.27,-0.504 -2.84,-0.754 -4.72,-0.754 h -6.14 v 14.305 z m -6.14,-24.301 h 6.38 l 9.42,-17.973 h 13.6 l -10.69,19.993 c 2.83,1.324 5.04,3.242 6.59,5.757 1.56,2.54 2.34,5.629 2.34,9.27 0,3.59 -0.77,6.695 -2.29,9.32 -1.53,2.625 -3.7,4.637 -6.51,6.047 -2.81,1.41 -6.14,2.117 -10.01,2.117 h -21.29 v -52.504 h 12.46 v 17.973"
                 style="opacity:1;fill:#2f4485;fill-opacity:1;fill-rule:nonzero;stroke:none"
                 id="path2015" />
              <path
                 d="m 1407.06,292.629 5.74,-18.613 h -11.87 l 5.73,18.613 z m -9.09,-28.25 h 17.8 l 3.4,-11.024 h 13.4 l -17.4,52.504 h -16.59 l -17.4,-52.504 h 13.39 l 3.4,11.024"
                 style="opacity:1;fill:#2f4485;fill-opacity:1;fill-rule:nonzero;stroke:none"
                 id="path2017" />
              <path
                 d="m 1359.69,295.629 c 1.86,0 3.43,-0.324 4.7,-0.977 1.28,-0.648 2.24,-1.566 2.9,-2.754 0.65,-1.187 0.98,-2.593 0.98,-4.214 0,-1.606 -0.33,-3.012 -0.98,-4.219 -0.66,-1.203 -1.62,-2.141 -2.89,-2.805 -1.26,-0.672 -2.83,-1.004 -4.71,-1.004 h -6.14 v 15.973 z m -6.14,-25.969 h 8.45 c 3.95,0 7.35,0.738 10.23,2.231 2.86,1.484 5.07,3.586 6.62,6.297 1.55,2.703 2.33,5.871 2.33,9.496 0,3.605 -0.77,6.773 -2.29,9.496 -1.52,2.726 -3.7,4.855 -6.51,6.386 -2.8,1.528 -6.14,2.293 -10,2.293 h -21.29 v -52.504 h 12.46 v 16.305"
                 style="opacity:1;fill:#2f4485;fill-opacity:1;fill-rule:nonzero;stroke:none"
                 id="path2019" />
            </g>
            <text
               xml:space="preserve"
               style="font-style:normal;font-variant:normal;font-weight:normal;font-stretch:normal;font-size:7.23238px;font-family:'Avenir Next';-inkscape-font-specification:'Avenir Next, Normal';font-variant-ligatures:normal;font-variant-caps:normal;font-variant-numeric:normal;font-variant-east-asian:normal;text-align:start;writing-mode:lr-tb;direction:ltr;text-anchor:start;fill:#2f4485;stroke-width:0.603646"
               x="133.37889"
               y="-26.076063"
               id="text1"
               transform="scale(1,-1)"><tspan
                 id="tspan1"
                 style="font-style:normal;font-variant:normal;font-weight:normal;font-stretch:normal;font-size:7.23238px;font-family:'Avenir Next';-inkscape-font-specification:'Avenir Next, Normal';font-variant-ligatures:normal;font-variant-caps:normal;font-variant-numeric:normal;font-variant-east-asian:normal;stroke-width:0.603649"
                 x="133.37889"
                 y="-26.076063">UNIVERSITÉ</tspan></text>
          </g>
        </g>
      </g>
    </g>
  </g>
</svg>
