<?xml version="1.0" encoding="UTF-8" standalone="no"?>
<svg
   width="2295"
   height="745"
   viewBox="0 0 176.95026 57.441298"
   version="1.1"
   id="svg11"
   xmlns="http://www.w3.org/2000/svg"
   xmlns:svg="http://www.w3.org/2000/svg">
  <defs
     id="defs11" />
  <g
     fill-rule="evenodd"
     clip-rule="evenodd"
     id="g11"
     transform="translate(-8.108727,-67.804148)">
    <path
       fill="#ffffff"
       d="M 0,0 H 192.756 V 192.756 H 0 Z"
       id="path1" />
    <path
       d="m 135.047,91.101 c 0.795,0 1.43,0.615 1.43,1.349 0,0.754 -0.635,1.369 -1.43,1.369 -0.258,0 -0.516,-0.06 -0.713,-0.179 0.197,0.477 0.316,0.992 0.316,1.548 v 2.281 a 3.938,3.938 0 0 1 -3.928,3.93 c -0.734,0 -1.43,-0.219 -2.004,-0.576 v 1.746 h 4.881 c 0.951,0 2.539,0.773 2.539,2.857 0,2.084 -1.43,2.857 -2.539,2.857 h -4.881 a 1.902,1.902 0 0 1 -1.926,-1.746 c -0.039,-0.873 0.635,-1.807 1.926,-1.926 -1.588,-0.158 -1.926,-1.189 -1.926,-2.201 0.02,-0.934 0.775,-1.668 1.607,-1.785 a 3.96,3.96 0 0 1 -1.588,-3.156 v -2.281 c 0,-2.163 1.766,-3.929 3.91,-3.929 1.15,0 2.182,0.496 2.916,1.29 0,-0.02 -0.02,-0.06 -0.02,-0.1 0.002,-0.733 0.656,-1.348 1.43,-1.348 z M 36.638,68.244 c 15.515,0 28.153,12.639 28.153,28.134 0,15.495 -12.639,28.134 -28.153,28.134 -15.496,0 -28.134,-12.639 -28.134,-28.134 0,-15.495 12.638,-28.134 28.134,-28.134 z"
       id="path2" />
    <path
       d="m 36.638,70.903 c 14.047,0 25.475,11.448 25.475,25.475 0,14.028 -11.428,25.476 -25.475,25.476 -14.028,0 -25.476,-11.447 -25.476,-25.476 C 11.163,82.351 22.61,70.903 36.638,70.903 Z"
       fill="#ffffff"
       id="path3" />
    <path
       d="m 24.257,90.525 5.932,12.619 6.449,-12.54 h 0.198 l 6.687,12.54 5.913,-12.58 c 0.218,0.04 0.437,0.04 0.654,0.04 2.361,0 4.286,-1.905 4.286,-4.266 0,-2.341 -1.925,-4.266 -4.286,-4.266 -2.341,0 -4.265,1.925 -4.265,4.266 0,1.409 0.694,2.659 1.726,3.433 L 43.523,98.203 38.96,89.97 a 4.258,4.258 0 0 0 2.043,-3.631 c 0,-2.341 -1.924,-4.266 -4.266,-4.266 -2.361,0 -4.285,1.925 -4.285,4.266 0,1.548 0.833,2.897 2.063,3.651 l -4.266,8.213 -3.988,-8.729 c 0.833,-0.793 1.369,-1.905 1.369,-3.135 0,-2.341 -1.925,-4.266 -4.266,-4.266 -2.361,0 -4.286,1.925 -4.286,4.266 0,2.361 1.925,4.266 4.286,4.266 0.298,0 0.595,-0.02 0.893,-0.08 z m 3.373,14.463 h 18.194 c 1.805,0 3.293,1.488 3.293,3.275 a 3.31,3.31 0 0 1 -3.293,3.293 H 27.63 a 3.31,3.31 0 0 1 -3.294,-3.293 c 0,-1.806 1.489,-3.275 3.294,-3.275 z m 68.193,-5.117 h -2.48 v 0.754 c 0,1.189 -0.793,1.785 -1.587,1.785 -0.793,0 -1.587,-0.596 -1.587,-1.785 v -2.184 h 5.655 v -3.413 c 0,-2.579 -1.746,-4.067 -4.127,-4.067 -2.262,0 -4.107,1.825 -4.107,4.067 v 5.735 c 0,2.242 1.845,4.066 4.107,4.066 2.243,0 4.127,-1.805 4.127,-4.066 v -0.892 z"
       id="path4" />
    <path
       d="m 93.342,96.061 h -3.174 v -0.714 c 0,-1.33 0.793,-1.984 1.587,-1.984 0.794,0 1.587,0.674 1.587,1.984 z"
       fill="#ffffff"
       id="path5" />
    <path
       d="m 184.252,99.871 h -2.48 v 0.754 c 0,1.189 -0.773,1.785 -1.566,1.785 -0.795,0 -1.588,-0.596 -1.588,-1.785 v -2.184 h 5.635 v -3.413 c 0,-2.579 -1.727,-4.067 -4.107,-4.067 -2.262,0 -4.105,1.825 -4.105,4.067 v 5.735 c 0,2.242 1.844,4.066 4.105,4.066 2.242,0 4.107,-1.805 4.107,-4.066 v -0.892 z"
       id="path6" />
    <path
       d="m 181.771,96.061 h -3.154 v -0.714 c 0,-1.33 0.793,-1.984 1.588,-1.984 0.793,0 1.566,0.674 1.566,1.984 z"
       fill="#ffffff"
       id="path7" />
    <path
       d="m 112.926,91.378 h 2.439 v 13.116 h -2.439 z m 6.804,0.715 c 0.715,-0.675 1.607,-1.051 2.52,-0.992 1.766,0.139 2.938,1.289 2.938,3.511 v 9.882 h -2.48 v -9.386 c 0,-0.992 -0.477,-1.607 -1.469,-1.587 -0.576,0 -1.508,0.516 -1.508,1.23 v 9.743 H 117.29 V 91.378 h 2.441 v 0.715 z m 20.059,0 c 0.715,-0.675 1.607,-1.051 2.52,-0.992 1.766,0.139 2.938,1.289 2.938,3.511 v 9.882 h -2.48 v -9.386 c 0,-0.992 -0.496,-1.607 -1.469,-1.587 -0.576,0 -1.508,0.516 -1.508,1.23 v 9.743 h -2.461 V 87.788 h 2.461 v 4.305 z m 22.4,11.686 c -0.734,0.674 -1.627,1.051 -2.539,0.973 -1.766,-0.141 -2.938,-1.271 -2.938,-3.492 v -9.881 h 2.48 v 9.385 c 0,0.992 0.496,1.586 1.469,1.586 0.596,-0.02 1.527,-0.516 1.527,-1.229 v -9.743 h 2.439 v 13.116 h -2.439 v -0.715 z m -48.054,-16.25 c 0.814,0 1.469,0.655 1.469,1.468 a 1.46,1.46 0 0 1 -1.469,1.448 1.455,1.455 0 0 1 -1.447,-1.448 1.46,1.46 0 0 1 1.447,-1.468 z m 40.873,7.619 v 5.655 c 0,2.678 -2.025,4.027 -4.049,4.027 -2.024,0 -4.047,-1.35 -4.047,-4.027 v -5.655 c 0,-2.599 2.023,-4.106 4.047,-4.067 2.024,0.039 4.049,1.25 4.049,4.067 z"
       id="path8" />
    <path
       d="m 152.625,95.208 v 5.437 c 0,1.27 -0.793,1.885 -1.586,1.885 -0.814,0 -1.607,-0.635 -1.607,-1.885 v -5.437 c 0,-1.131 0.793,-1.726 1.607,-1.746 0.793,-0.02 1.586,0.536 1.586,1.746 z"
       fill="#ffffff"
       id="path9" />
    <path
       d="m 107.172,89.057 h 2.439 v 2.321 h 1.924 v 2.104 h -1.924 v 7.995 c 0,1.092 0.477,2.004 1.449,3.018 h -2.66 c -0.971,-1.014 -1.229,-1.926 -1.229,-3.018 v -7.995 h -5.754 c -0.654,0 -1.568,0.337 -1.568,1.408 0.02,1.012 1.35,1.747 2.322,2.143 2.162,0.912 3.352,2.123 3.312,4.166 -0.059,2.203 -1.646,3.592 -4.246,3.592 -3.432,0 -4.365,-2.539 -4.305,-4.861 h 2.719 c -0.08,1.33 0.297,2.48 1.646,2.58 1.07,0.098 1.508,-0.676 1.527,-1.35 0.02,-1.389 -1.727,-1.926 -2.838,-2.539 -1.686,-0.914 -2.697,-2.045 -2.697,-3.572 0,-1.508 1.17,-3.67 4.127,-3.67 h 5.754 V 89.057 Z M 77.529,104.494 H 74.97 L 71.994,87.788 h 2.837 l 1.547,10.337 1.985,-10.337 h 2.738 l 1.825,10.337 1.786,-10.337 h 2.599 l -2.917,16.706 H 81.736 L 79.731,93.125 Z m 88.45,-4.484 h 2.52 c 0.041,1.547 0.854,2.578 1.846,2.598 0.715,0.021 1.588,-0.258 1.588,-1.447 0,-0.893 -0.795,-1.549 -1.807,-2.064 -1.727,-0.852 -3.729,-1.943 -3.75,-4.225 0,-2.321 2.262,-3.829 4.246,-3.67 1.926,0.138 3.83,1.13 3.85,4.285 h -2.619 c 0.02,-1.369 -0.555,-2.003 -1.508,-2.003 -0.615,0 -1.369,0.635 -1.369,1.27 0,1.071 1.627,1.667 2.639,2.221 1.885,1.053 3.076,2.541 3.016,4.307 -0.039,1.846 -1.725,3.473 -4.385,3.512 -2.422,0.017 -4.506,-2.087 -4.267,-4.784 z"
       id="path10" />
    <path
       d="m 128.719,104.592 h 4.662 c 0.615,0 0.912,0.457 0.912,0.912 0,0.457 -0.316,0.914 -0.912,0.914 h -4.662 z m 3.451,-9.583 v 2.321 c 0,1.033 -0.754,1.568 -1.508,1.568 -0.754,0 -1.508,-0.535 -1.508,-1.568 v -2.321 c 0,-1.15 0.754,-1.706 1.508,-1.706 0.754,0 1.508,0.556 1.508,1.706 z"
       fill="#ffffff"
       id="path11" />
  </g>
</svg>
