<?xml version="1.0" standalone="no"?>
<!DOCTYPE svg PUBLIC "-//W3C//DTD SVG 1.1//EN" "http://www.w3.org/Graphics/SVG/1.1/DTD/svg11.dtd"><svg xmlns="http://www.w3.org/2000/svg" style="background-color:#FFF" width="2500" height="2500"><path stroke="black" fill="none" stroke-width="1" d="M192.756, 61L192.756, 133"/><path stroke="black" fill="none" stroke-width="1" d="M135.047, 91.101L135.606, 91.209L136.06, 91.5L136.365, 91.93L136.477, 92.45L136.365, 92.982L136.06, 93.417L135.606, 93.711L135.047, 93.819L134.334, 93.64L134.65, 95.188L134.65, 97.469L134.339, 98.997L133.497, 100.245L132.25, 101.087L130.722, 101.399L129.66, 101.245L128.718, 100.823L128.718, 102.569L133.599, 102.569L134.397, 102.722L135.225, 103.216L135.875, 104.1L136.138, 105.426L135.897, 106.752L135.284, 107.636L134.464, 108.13L133.599, 108.283L128.718, 108.283L128.006, 108.157L127.41, 107.79L126.987, 107.233L126.792, 106.537L126.895, 105.885L127.256, 105.291L127.867, 104.839L128.718, 104.611L127.747, 104.343L127.159, 103.831L126.87, 103.159L126.792, 102.41L126.935, 101.754L127.291, 101.211L127.8, 100.822L128.399, 100.625L127.732, 99.993L127.234, 99.234L126.921, 98.382L126.811, 97.469L126.811, 95.188L127.12, 93.662L127.962, 92.412L129.206, 91.569L130.721, 91.259L132.335, 91.606L133.637, 92.549L133.617, 92.449L133.732, 91.929L134.042, 91.5L134.497, 91.209L135.047, 91.101"/><path stroke="black" fill="none" stroke-width="1" d="M36.638, 68.244L39.511, 68.39L42.302, 68.817L44.997, 69.513L47.582, 70.461L50.043, 71.648L52.364, 73.06L54.532, 74.682L56.533, 76.5L58.351, 78.5L59.974, 80.667L61.386, 82.987L62.574, 85.445L63.522, 88.028L64.218, 90.72L64.645, 93.509L64.791, 96.378L64.645, 99.247L64.218, 102.036L63.522, 104.728L62.574, 107.311L61.386, 109.769L59.974, 112.089L58.351, 114.256L56.532, 116.256L54.532, 118.074L52.363, 119.696L50.042, 121.108L47.582, 122.295L44.997, 123.243L42.302, 123.939L39.511, 124.366L36.638, 124.512L33.768, 124.366L30.98, 123.939L28.287, 123.243L25.705, 122.295L23.246, 121.108L20.926, 119.696L18.76, 118.074L16.76, 116.256L14.942, 114.256L13.32, 112.089L11.908, 109.769L10.721, 107.311L9.772, 104.728L9.077, 102.036L8.65, 99.247L8.504, 96.378L8.65, 93.509L9.077, 90.72L9.772, 88.028L10.721, 85.445L11.908, 82.987L13.32, 80.667L14.942, 78.5L16.76, 76.5L18.76, 74.682L20.926, 73.06L23.246, 71.648L25.705, 70.461L28.287, 69.513L30.98, 68.817L33.768, 68.39L36.638, 68.244"/><path stroke="black" fill="none" stroke-width="1" d="M36.638, 70.903L39.239, 71.035L41.766, 71.422L44.205, 72.052L46.545, 72.911L48.771, 73.986L50.871, 75.265L52.833, 76.734L54.643, 78.38L56.288, 80.191L57.756, 82.153L59.034, 84.254L60.108, 86.48L60.966, 88.818L61.595, 91.256L61.981, 93.78L62.113, 96.378L61.981, 98.976L61.595, 101.5L60.966, 103.938L60.108, 106.277L59.034, 108.503L57.756, 110.603L56.288, 112.566L54.643, 114.376L52.833, 116.023L50.871, 117.492L48.771, 118.771L46.545, 119.846L44.205, 120.705L41.766, 121.335L39.239, 121.722L36.638, 121.854L34.04, 121.722L31.516, 121.335L29.078, 120.705L26.739, 119.846L24.513, 118.771L22.413, 117.492L20.45, 116.023L18.64, 114.377L16.993, 112.566L15.524, 110.604L14.245, 108.503L13.17, 106.277L12.311, 103.939L11.681, 101.501L11.294, 98.976L11.162, 96.378L11.294, 93.78L11.682, 91.256L12.311, 88.818L13.17, 86.48L14.246, 84.254L15.524, 82.153L16.993, 80.191L18.64, 78.38L20.451, 76.734L22.413, 75.265L24.513, 73.986L26.739, 72.911L29.078, 72.052L31.516, 71.422L34.04, 71.035L36.638, 70.903"/><path stroke="black" fill="none" stroke-width="1" d="M24.257, 90.525L23.364, 90.605L21.698, 90.27L20.336, 89.357L19.416, 88.002L19.078, 86.339L19.416, 84.685L20.336, 83.328L21.698, 82.41L23.364, 82.073L25.018, 82.41L26.375, 83.328L27.293, 84.685L27.63, 86.339L27.258, 88.07L26.261, 89.474L30.249, 98.203L34.515, 89.99L33.674, 89.319L33.022, 88.462L32.601, 87.456L32.452, 86.339L32.79, 84.685L33.709, 83.328L35.071, 82.41L36.737, 82.073L38.392, 82.41L39.748, 83.328L40.666, 84.685L41.003, 86.339L40.861, 87.424L40.456, 88.421L39.813, 89.286L38.96, 89.97L43.523, 98.203L47.551, 89.771L46.846, 89.106L46.301, 88.293L45.95, 87.36L45.825, 86.338L46.162, 84.684L47.08, 83.327L48.436, 82.409L50.09, 82.072L51.756, 82.409L53.118, 83.327L54.038, 84.684L54.376, 86.338L54.038, 88.001L53.118, 89.356L51.756, 90.269L50.09, 90.604L49.436, 90.564L43.523, 103.144L36.836, 90.604L36.638, 90.604L30.189, 103.144L24.257, 90.525"/><path stroke="black" fill="none" stroke-width="1" d="M27.63, 104.988L45.824, 104.988L47.1, 105.248L48.147, 105.955L48.856, 106.997L49.117, 108.263L48.854, 109.542L48.148, 110.587L47.103, 111.293L45.824, 111.556L27.63, 111.556L26.351, 111.293L25.306, 110.587L24.599, 109.542L24.336, 108.263L24.597, 106.989L25.306, 105.948L26.354, 105.246L27.63, 104.988"/><path stroke="black" fill="none" stroke-width="1" d="M95.823, 99.871L95.824, 99.871L95.824, 100.763L95.495, 102.352L94.602, 103.644L93.288, 104.512L91.697, 104.829L90.101, 104.509L88.795, 103.637L87.914, 102.344L87.59, 100.763L87.59, 95.028L87.914, 93.447L88.795, 92.154L90.101, 91.281L91.697, 90.961L93.346, 91.234L94.653, 92.027L95.514, 93.305L95.824, 95.028L95.824, 98.441L90.169, 98.441L90.169, 100.625L90.305, 101.406L90.665, 101.963L91.173, 102.298L91.756, 102.41L92.339, 102.298L92.847, 101.963L93.207, 101.406L93.343, 100.625L93.343, 99.871L95.823, 99.871"/><path stroke="black" fill="none" stroke-width="1" d="M93.342, 96.061L90.168, 96.061L90.168, 95.347L90.304, 94.476L90.664, 93.856L91.172, 93.486L91.755, 93.363L92.338, 93.489L92.846, 93.864L93.206, 94.484L93.342, 95.347L93.342, 96.061"/><path stroke="black" fill="none" stroke-width="1" d="M184.252, 99.871L184.253, 99.871L184.253, 100.763L183.927, 102.352L183.04, 103.644L181.734, 104.512L180.146, 104.829L178.551, 104.509L177.246, 103.637L176.364, 102.344L176.041, 100.763L176.041, 95.028L176.364, 93.447L177.245, 92.154L178.55, 91.281L180.146, 90.961L181.792, 91.234L183.092, 92.027L183.946, 93.305L184.253, 95.028L184.253, 98.441L178.618, 98.441L178.618, 100.625L178.754, 101.406L179.114, 101.963L179.622, 102.298L180.206, 102.41L180.785, 102.298L181.286, 101.963L181.639, 101.406L181.772, 100.625L181.772, 99.871L184.252, 99.871"/><path stroke="black" fill="none" stroke-width="1" d="M181.771, 96.061L178.617, 96.061L178.617, 95.347L178.753, 94.476L179.113, 93.856L179.621, 93.486L180.205, 93.363L180.784, 93.489L181.285, 93.864L181.638, 94.484L181.771, 95.347L181.771, 96.061"/><path stroke="black" fill="none" stroke-width="1" d="M112.926, 91.378L115.365, 91.378L115.365, 104.494L112.926, 104.494L112.926, 91.378"/><path stroke="black" fill="none" stroke-width="1" d="M119.73, 92.093L120.916, 91.322L122.25, 91.101L123.454, 91.396L124.381, 92.075L124.977, 93.146L125.188, 94.612L125.188, 104.494L122.708, 104.494L122.708, 95.108L122.618, 94.439L122.346, 93.935L121.887, 93.621L121.239, 93.521L120.269, 93.868L119.886, 94.258L119.731, 94.751L119.731, 104.494L117.29, 104.494L117.29, 91.378L119.731, 91.378L119.731, 92.093L119.73, 92.093"/><path stroke="black" fill="none" stroke-width="1" d="M139.789, 92.093L140.975, 91.322L142.309, 91.101L143.513, 91.396L144.44, 92.075L145.036, 93.146L145.247, 94.612L145.247, 104.494L142.767, 104.494L142.767, 95.108L142.674, 94.439L142.397, 93.935L141.938, 93.621L141.298, 93.521L140.328, 93.868L139.945, 94.258L139.79, 94.751L139.79, 104.494L137.329, 104.494L137.329, 87.788L139.79, 87.788L139.79, 92.093L139.789, 92.093"/><path stroke="black" fill="none" stroke-width="1" d="M162.189, 103.779L160.986, 104.548L159.65, 104.752L158.446, 104.459L157.519, 103.786L156.923, 102.723L156.712, 101.26L156.712, 91.379L159.192, 91.379L159.192, 100.764L159.285, 101.43L159.562, 101.929L160.021, 102.242L160.661, 102.35L161.648, 101.995L162.033, 101.611L162.188, 101.121L162.188, 91.378L164.627, 91.378L164.627, 104.494L162.188, 104.494L162.188, 103.779L162.189, 103.779"/><path stroke="black" fill="none" stroke-width="1" d="M114.135, 87.529L114.708, 87.644L115.175, 87.958L115.489, 88.425L115.604, 88.997L115.485, 89.564L115.169, 90.025L114.703, 90.334L114.135, 90.445L113.573, 90.329L113.114, 90.019L112.804, 89.559L112.688, 88.997L112.799, 88.429L113.108, 87.964L113.569, 87.648L114.135, 87.529"/><path stroke="black" fill="none" stroke-width="1" d="M155.008, 95.148L155.008, 100.803L154.917, 101.745L154.66, 102.562L153.742, 103.821L152.446, 104.577L150.959, 104.83L149.473, 104.577L148.177, 103.82L147.26, 102.562L147.003, 101.745L146.912, 100.803L146.912, 95.148L147.003, 94.225L147.26, 93.411L148.177, 92.125L149.473, 91.335L150.959, 91.081L152.446, 91.337L153.742, 92.073L154.66, 93.33L154.917, 94.166L155.008, 95.148"/><path stroke="black" fill="none" stroke-width="1" d="M152.625, 95.208L152.625, 100.645L152.489, 101.475L152.129, 102.064L151.621, 102.414L151.039, 102.53L150.445, 102.411L149.93, 102.056L149.569, 101.467L149.432, 100.645L149.432, 95.208L149.569, 94.461L149.93, 93.918L150.445, 93.584L151.039, 93.462L151.621, 93.556L152.129, 93.874L152.489, 94.422L152.625, 95.208"/><path stroke="black" fill="none" stroke-width="1" d="M107.172, 89.057L109.611, 89.057L109.611, 91.378L111.535, 91.378L111.535, 93.482L109.611, 93.482L109.611, 101.477L109.971, 103.015L111.06, 104.495L108.4, 104.495L107.798, 103.749L107.421, 103.015L107.171, 101.477L107.171, 93.482L101.417, 93.482L100.388, 93.784L100.002, 94.218L99.849, 94.89L100.084, 95.596L100.653, 96.193L102.171, 97.033L103.606, 97.781L104.653, 98.692L105.286, 99.814L105.483, 101.199L105.16, 102.69L104.313, 103.821L102.989, 104.54L101.237, 104.791L100.064, 104.677L99.108, 104.358L98.351, 103.865L97.775, 103.231L97.097, 101.669L96.932, 99.93L99.651, 99.93L99.685, 100.88L99.938, 101.681L100.459, 102.252L101.297, 102.51L101.984, 102.435L102.455, 102.125L102.728, 101.669L102.824, 101.16L102.545, 100.264L101.829, 99.6L99.986, 98.621L98.853, 97.892L98.005, 97.065L97.473, 96.123L97.289, 95.049L97.518, 93.839L98.244, 92.648L99.524, 91.74L100.39, 91.475L101.416, 91.379L107.17, 91.379L107.17, 89.057L107.172, 89.057"/><path stroke="black" fill="none" stroke-width="1" d="M77.529, 104.494L74.97, 104.494L71.994, 87.788L74.831, 87.788L76.378, 98.125L78.363, 87.788L81.101, 87.788L82.926, 98.125L84.712, 87.788L87.311, 87.788L84.394, 104.494L81.736, 104.494L79.731, 93.125L77.529, 104.494"/><path stroke="black" fill="none" stroke-width="1" d="M165.979, 100.01L168.499, 100.01L168.665, 101.066L169.065, 101.882L169.644, 102.411L170.345, 102.608L170.895, 102.558L171.407, 102.338L171.785, 101.892L171.933, 101.161L171.793, 100.534L171.409, 99.987L170.126, 99.097L168.814, 98.398L167.611, 97.521L166.728, 96.375L166.376, 94.872L166.477, 94.041L166.76, 93.297L167.755, 92.107L169.122, 91.382L170.622, 91.202L172.033, 91.486L173.262, 92.213L173.753, 92.781L174.133, 93.506L174.38, 94.403L174.472, 95.487L171.853, 95.487L171.76, 94.596L171.464, 93.972L170.985, 93.604L170.345, 93.484L169.872, 93.593L169.43, 93.881L169.103, 94.288L168.976, 94.754L169.246, 95.475L169.916, 96.058L171.615, 96.975L172.89, 97.844L173.852, 98.861L174.45, 100.012L174.631, 101.282L174.303, 102.604L173.421, 103.716L172.048, 104.488L170.246, 104.794L168.524, 104.433L167.115, 103.42L166.204, 101.898L165.994, 100.991L165.979, 100.01"/><path stroke="black" fill="none" stroke-width="1" d="M128.719, 104.592L133.381, 104.592L134.068, 104.877L134.293, 105.504L134.061, 106.132L133.381, 106.418L128.719, 106.418L128.719, 104.592"/><path stroke="black" fill="none" stroke-width="1" d="M132.17, 95.009L132.17, 97.33L132.04, 98.011L131.699, 98.501L131.216, 98.798L130.662, 98.898L130.108, 98.798L129.625, 98.501L129.284, 98.011L129.154, 97.33L129.154, 95.009L129.284, 94.257L129.625, 93.725L130.108, 93.408L130.662, 93.303L131.216, 93.408L131.699, 93.725L132.04, 94.257L132.17, 95.009"/></svg>